<svg width="28" height="28" viewBox="0 0 28 28" fill="none" xmlns="http://www.w3.org/2000/svg">
<path fill-rule="evenodd" clip-rule="evenodd" d="M12.0834 3.5H16.3747C17.4268 3.49999 18.2755 3.49999 18.9662 3.54711C19.6763 3.59556 20.3043 3.69773 20.899 3.94403C22.3284 4.53608 23.4639 5.67168 24.056 7.10101C24.3022 7.69566 24.4044 8.32365 24.4529 9.03386C24.5 9.72453 24.5 10.5732 24.5 11.6252V11.7081C24.5 12.7602 24.5 13.6088 24.4529 14.2995C24.4044 15.0096 24.3022 15.6376 24.056 16.2323C23.4639 17.6617 22.3284 18.7972 20.899 19.3893C20.3043 19.6356 19.6763 19.7378 18.9662 19.7862C18.2755 19.8333 17.4268 19.8333 16.3747 19.8333H13.3334C12.7972 19.8333 12.6903 19.8387 12.603 19.8563C12.3998 19.8973 12.2112 19.9915 12.0566 20.1296C11.9902 20.1888 11.9217 20.2711 11.6 20.7001L11.5749 20.7335C10.8682 21.6757 10.3051 22.4266 9.84423 22.9694C9.41108 23.4797 8.92145 23.993 8.33711 24.2346C6.72918 24.8992 4.87713 24.2818 3.9896 22.7853C3.66706 22.2414 3.58328 21.5371 3.54292 20.8691C3.49999 20.1582 3.5 19.2197 3.5 18.0419V12.0834C3.49999 10.819 3.49998 9.79914 3.56746 8.97328C3.63693 8.12295 3.78371 7.37606 4.1358 6.68506C4.69505 5.58745 5.58745 4.69505 6.68506 4.1358C7.37606 3.78371 8.12295 3.63693 8.97328 3.56746C9.79914 3.49998 10.819 3.49999 12.0834 3.5ZM9.16328 5.89304C8.45725 5.95072 8.05161 6.05826 7.74437 6.21481C7.0858 6.55037 6.55037 7.0858 6.21481 7.74437C6.05826 8.05161 5.95072 8.45725 5.89304 9.16328C5.83424 9.88293 5.83333 10.8073 5.83333 12.1333V18C5.83333 19.2291 5.83386 20.0966 5.87201 20.7284C5.89089 21.0408 5.91727 21.2605 5.9483 21.4153C5.97458 21.5466 5.99751 21.5957 5.99877 21.5989C6.29473 22.0938 6.90797 22.2981 7.44165 22.0799C7.44455 22.0781 7.49238 22.0525 7.59216 21.9633C7.70985 21.8581 7.86276 21.6981 8.06538 21.4594C8.47492 20.977 8.99586 20.2833 9.73334 19.3C9.75024 19.2774 9.76699 19.2551 9.7836 19.2328C10.0266 18.9083 10.2402 18.623 10.503 18.3886C10.9669 17.9746 11.5328 17.6916 12.1424 17.5688C12.4876 17.4993 12.8439 17.4996 13.2495 17.5C13.2772 17.5 13.3051 17.5 13.3334 17.5H16.3333C17.4365 17.5 18.2055 17.4994 18.8074 17.4584C19.3987 17.418 19.7431 17.3425 20.0061 17.2335C20.8636 16.8784 21.5451 16.1969 21.9002 15.3394C22.0092 15.0765 22.0847 14.7321 22.125 14.1407C22.1661 13.5388 22.1667 12.7699 22.1667 11.6667C22.1667 10.5635 22.1661 9.79456 22.125 9.19269C22.0847 8.6013 22.0092 8.2569 21.9002 7.99394C21.5451 7.13635 20.8636 6.45498 20.0061 6.09975C19.7431 5.99083 19.3987 5.91539 18.8074 5.87503C18.2055 5.83396 17.4365 5.83333 16.3333 5.83333H12.1333C10.8073 5.83333 9.88293 5.83424 9.16328 5.89304Z" fill="#3056FF"/>
<path d="M9.33464 8.16602C8.69031 8.16602 8.16797 8.68836 8.16797 9.33268C8.16797 9.97701 8.69031 10.4993 9.33464 10.4993H18.668C19.3123 10.4993 19.8346 9.97701 19.8346 9.33268C19.8346 8.68836 19.3123 8.16602 18.668 8.16602H9.33464Z" fill="#3056FF"/>
<path d="M9.33464 12.834C8.69031 12.834 8.16797 13.3563 8.16797 14.0007C8.16797 14.645 8.69031 15.1673 9.33464 15.1673H12.8346C13.479 15.1673 14.0013 14.645 14.0013 14.0007C14.0013 13.3563 13.479 12.834 12.8346 12.834H9.33464Z" fill="#3056FF"/>
</svg>
