<svg width="28" height="28" viewBox="0 0 28 28" fill="none" xmlns="http://www.w3.org/2000/svg">
<path fill-rule="evenodd" clip-rule="evenodd" d="M26.4916 19.0077C26.9472 19.4633 26.9472 20.202 26.4916 20.6576L21.8249 25.3243C21.3693 25.7799 20.6306 25.7799 20.175 25.3243L17.8417 22.9909C17.3861 22.5354 17.3861 21.7966 17.8417 21.341C18.2973 20.8855 19.036 20.8855 19.4916 21.341L21 22.8494L24.8417 19.0077C25.2973 18.5521 26.036 18.5521 26.4916 19.0077Z" fill="#FF6767"/>
<path d="M7 17.5007C7 16.8563 7.52234 16.334 8.16667 16.334H12.8333C13.4777 16.334 14 16.8563 14 17.5007C14 18.145 13.4777 18.6673 12.8333 18.6673H8.16667C7.52234 18.6673 7 18.145 7 17.5007Z" fill="#FF6767"/>
<path d="M2.33203 10.5H25.6654V12.8333H2.33203V10.5Z" fill="#FF6767"/>
<path fill-rule="evenodd" clip-rule="evenodd" d="M9.05052 4.66602H18.9469C19.886 4.666 20.6611 4.66599 21.2925 4.71757C21.9482 4.77116 22.5511 4.88614 23.1174 5.17465C23.9954 5.62206 24.7093 6.33597 25.1567 7.21406C25.4452 7.78028 25.5602 8.38311 25.6138 9.03888C25.6654 9.67027 25.6654 10.4454 25.6654 11.3845V15.166C25.6654 15.8104 25.143 16.3327 24.4987 16.3327C23.8543 16.3327 23.332 15.8104 23.332 15.166V11.4327C23.332 10.4333 23.3311 9.754 23.2882 9.2289C23.2464 8.71741 23.1707 8.45584 23.0777 8.27337C22.854 7.83433 22.4971 7.47737 22.058 7.25367C21.8756 7.1607 21.614 7.08495 21.1025 7.04316C20.5774 7.00026 19.8981 6.99935 18.8987 6.99935H9.0987C8.09936 6.99935 7.42002 7.00026 6.89491 7.04316C6.38342 7.08495 6.12186 7.1607 5.93939 7.25367C5.50035 7.47737 5.14338 7.83433 4.91969 8.27337C4.82671 8.45584 4.75096 8.71741 4.70917 9.2289C4.66628 9.754 4.66536 10.4333 4.66536 11.4327V16.566C4.66536 17.5654 4.66628 18.2447 4.70917 18.7698C4.75096 19.2813 4.82671 19.5429 4.91969 19.7253C5.14338 20.1644 5.50035 20.5214 5.93939 20.745C6.12186 20.838 6.38342 20.9137 6.89491 20.9555C7.42002 20.9984 8.09936 20.9993 9.0987 20.9993H13.9987C14.643 20.9993 15.1654 21.5217 15.1654 22.166C15.1654 22.8104 14.643 23.3327 13.9987 23.3327H9.05055C8.1114 23.3327 7.33631 23.3327 6.7049 23.2811C6.04912 23.2276 5.4463 23.1125 4.88008 22.824C4.00199 22.3766 3.28808 21.6627 2.84066 20.7847C2.55216 20.2184 2.43717 19.6156 2.38359 18.9598C2.33201 18.3284 2.33202 17.5534 2.33203 16.6142V11.3845C2.33202 10.4454 2.33201 9.67028 2.38359 9.03889C2.43717 8.38311 2.55216 7.78028 2.84066 7.21406C3.28808 6.33597 4.00199 5.62206 4.88008 5.17465C5.4463 4.88614 6.04912 4.77116 6.7049 4.71757C7.3363 4.66599 8.11138 4.666 9.05052 4.66602Z" fill="#FF6767"/>
</svg>
