<svg width="28" height="28" viewBox="0 0 28 28" fill="none" xmlns="http://www.w3.org/2000/svg">
<path fill-rule="evenodd" clip-rule="evenodd" d="M14.582 2.33398C15.3863 2.33398 16.1146 2.65954 16.6422 3.18607C16.6627 3.20646 16.6828 3.22717 16.7027 3.24816C17.169 3.74189 17.4649 4.39844 17.496 5.12357L17.4969 5.14804C17.4981 5.1821 17.4987 5.2163 17.4987 5.25065V5.26729C17.4987 5.31471 17.5275 5.35734 17.5714 5.37551C17.6151 5.3937 17.6656 5.38392 17.6992 5.35035L17.711 5.33859C17.7353 5.3143 17.7599 5.29054 17.7848 5.26729L17.8028 5.25065C18.3375 4.75988 19.0109 4.50484 19.6899 4.48552C19.7188 4.48469 19.7477 4.48429 19.7765 4.48433C20.5219 4.48511 21.267 4.76987 21.8358 5.33859L22.6607 6.16356C23.2295 6.73228 23.5143 7.47744 23.5151 8.22285C23.5151 8.25171 23.5146 8.28059 23.5138 8.30944C23.4945 8.98836 23.2395 9.66182 22.7487 10.1966L22.732 10.2145C22.7088 10.2394 22.685 10.2641 22.6607 10.2883L22.6489 10.3001C22.6155 10.3337 22.6057 10.3842 22.6239 10.428C22.6419 10.4718 22.6847 10.5007 22.732 10.5007H22.7487C22.783 10.5007 22.8173 10.5012 22.8512 10.5024L22.8757 10.5034C23.601 10.5345 24.2574 10.8303 24.7512 11.2967C24.7722 11.3165 24.7929 11.3367 24.8132 11.3571C25.3399 11.8848 25.6654 12.613 25.6654 13.4173V14.584C25.6654 15.3883 25.3399 16.1165 24.8132 16.6442C24.7929 16.6646 24.7722 16.6848 24.7512 16.7046C24.2574 17.171 23.601 17.4668 22.8757 17.498L22.8512 17.4989C22.8173 17.5001 22.783 17.5007 22.7487 17.5007H22.732C22.6847 17.5007 22.6419 17.5295 22.6239 17.5733C22.6057 17.6171 22.6155 17.6676 22.6489 17.7012L22.6607 17.713C22.685 17.7373 22.7088 17.7619 22.732 17.7867L22.7487 17.8048C23.2395 18.3395 23.4945 19.0129 23.5138 19.6919C23.5146 19.7207 23.5151 19.7496 23.5151 19.7785C23.5143 20.5238 23.2295 21.269 22.6607 21.8377L21.8358 22.6627C21.267 23.2314 20.5219 23.5162 19.7765 23.5169C19.7477 23.517 19.7188 23.5166 19.6899 23.5158C19.011 23.4965 18.3375 23.2415 17.8028 22.7507L17.7848 22.734C17.7599 22.7108 17.7353 22.687 17.711 22.6627L17.6992 22.6509C17.6656 22.6174 17.6151 22.6076 17.5714 22.6258C17.5275 22.6439 17.4987 22.6866 17.4987 22.734V22.7507C17.4987 22.785 17.4981 22.8193 17.4969 22.8532L17.496 22.8777C17.4649 23.6029 17.169 24.2594 16.7027 24.7531C16.6828 24.7741 16.6627 24.7949 16.6422 24.8152C16.1146 25.3417 15.3863 25.6673 14.582 25.6673H13.4154C12.6111 25.6673 11.8828 25.3417 11.3552 24.8152C11.3347 24.7949 11.3146 24.7741 11.2948 24.7531C10.8284 24.2594 10.5325 23.6029 10.5014 22.8777L10.5005 22.8532C10.4993 22.8193 10.4987 22.785 10.4987 22.7507V22.734C10.4987 22.6866 10.4699 22.6439 10.4261 22.6258C10.3822 22.6076 10.3317 22.6174 10.2981 22.6509L10.2864 22.6627C10.2621 22.687 10.2375 22.7108 10.2126 22.734L10.1946 22.7507C9.65986 23.2415 8.98641 23.4965 8.30749 23.5158C8.27863 23.5166 8.24976 23.517 8.2209 23.5169C7.47549 23.5162 6.73033 23.2314 6.1616 22.6627L5.33664 21.8377C4.76791 21.269 4.48315 20.5238 4.48237 19.7785C4.48234 19.7496 4.48273 19.7207 4.48356 19.6919C4.50288 19.0129 4.75793 18.3395 5.2487 17.8048L5.26533 17.7867C5.28859 17.7619 5.31235 17.7373 5.33664 17.713L5.3484 17.7012C5.38197 17.6676 5.39174 17.6171 5.37355 17.5733C5.35539 17.5295 5.31276 17.5007 5.26533 17.5007H5.2487C5.21435 17.5007 5.18016 17.5001 5.14609 17.4989L5.12161 17.498C4.39648 17.4668 3.73994 17.171 3.24621 16.7046C3.22521 16.6848 3.20451 16.6646 3.18412 16.6442C2.65759 16.1165 2.33203 15.3883 2.33203 14.584V13.4173C2.33203 12.613 2.65759 11.8848 3.18412 11.3571C3.20451 11.3367 3.22521 11.3165 3.24621 11.2967C3.73994 10.8303 4.39648 10.5345 5.12161 10.5034L5.14609 10.5024C5.18016 10.5012 5.21435 10.5007 5.2487 10.5007H5.26533C5.31276 10.5007 5.35539 10.4718 5.37355 10.428C5.39174 10.3842 5.38197 10.3337 5.3484 10.3001L5.33664 10.2883C5.31235 10.2641 5.28859 10.2394 5.26533 10.2145L5.2487 10.1966C4.75793 9.66182 4.50288 8.98836 4.48356 8.30944C4.48273 8.28059 4.48234 8.25171 4.48237 8.22285C4.48315 7.47744 4.76791 6.73228 5.33664 6.16356L6.1616 5.33859C6.73033 4.76987 7.47549 4.48511 8.2209 4.48433C8.24976 4.48429 8.27864 4.48469 8.30749 4.48552C8.98641 4.50484 9.65986 4.75988 10.1946 5.25065L10.2126 5.26729C10.2375 5.29054 10.2621 5.3143 10.2864 5.33859L10.2981 5.35035C10.3317 5.38392 10.3822 5.3937 10.4261 5.37551C10.4699 5.35734 10.4987 5.31471 10.4987 5.26729V5.25065C10.4987 5.2163 10.4993 5.1821 10.5005 5.14804L10.5014 5.12357C10.5325 4.39844 10.8284 3.74189 11.2948 3.24816C11.3146 3.22717 11.3347 3.20646 11.3552 3.18607C11.8828 2.65954 12.6111 2.33398 13.4154 2.33398H14.582ZM12.832 22.7507C12.832 23.0728 13.0932 23.334 13.4154 23.334H14.582C14.9041 23.334 15.1654 23.0728 15.1654 22.7507V22.734C15.1654 21.7312 15.7734 20.8454 16.6776 20.4704C17.5835 20.0947 18.6405 20.2924 19.3491 21.001L19.3609 21.0128C19.5888 21.2406 19.958 21.2406 20.1859 21.0128L21.0108 20.1878C21.2387 19.96 21.2387 19.5907 21.0108 19.3629L20.999 19.3511C20.2904 18.6425 20.0928 17.5855 20.4684 16.6794C20.8434 15.7754 21.7293 15.1673 22.732 15.1673H22.7487C23.0708 15.1673 23.332 14.9061 23.332 14.584V13.4173C23.332 13.0952 23.0708 12.834 22.7487 12.834H22.732C21.7293 12.834 20.8434 12.2259 20.4684 11.3218C20.0928 10.4158 20.2904 9.35886 20.999 8.65019L21.0108 8.63843C21.2387 8.41061 21.2387 8.04127 21.0108 7.81347L20.1859 6.98851C19.958 6.7607 19.5888 6.7607 19.3609 6.98851L19.3491 7.00028C18.6405 7.70895 17.5835 7.90658 16.6776 7.53088C15.7734 7.15595 15.1654 6.2701 15.1654 5.26729V5.25065C15.1654 4.92849 14.9041 4.66732 14.582 4.66732H13.4154C13.0932 4.66732 12.832 4.92849 12.832 5.25065V5.26729C12.832 6.2701 12.224 7.15595 11.3198 7.53088C10.4138 7.90658 9.3569 7.70895 8.64824 7.00028L8.63648 6.98851C8.40866 6.7607 8.03932 6.7607 7.81151 6.98851L6.98655 7.81347C6.75875 8.04127 6.75875 8.41061 6.98655 8.63843L6.99831 8.65019C7.70699 9.35886 7.90463 10.4158 7.52892 11.3218C7.15399 12.2259 6.26815 12.834 5.26533 12.834H5.2487C4.92653 12.834 4.66536 13.0952 4.66536 13.4173V14.584C4.66536 14.9061 4.92653 15.1673 5.2487 15.1673H5.26533C6.26815 15.1673 7.15399 15.7754 7.52891 16.6794C7.90463 17.5855 7.70699 18.6425 6.99832 19.3511L6.98655 19.3629C6.75875 19.5907 6.75875 19.96 6.98655 20.1878L7.81151 21.0128C8.03932 21.2406 8.40866 21.2406 8.63647 21.0128L8.64824 21.001C9.3569 20.2924 10.4138 20.0947 11.3198 20.4704C12.224 20.8454 12.832 21.7312 12.832 22.734V22.7507Z" fill="#8E55EA"/>
<path fill-rule="evenodd" clip-rule="evenodd" d="M13.9987 16.334C15.2874 16.334 16.332 15.2894 16.332 14.0007C16.332 12.712 15.2874 11.6673 13.9987 11.6673C12.71 11.6673 11.6654 12.712 11.6654 14.0007C11.6654 15.2894 12.71 16.334 13.9987 16.334ZM13.9987 18.6673C16.576 18.6673 18.6654 16.5779 18.6654 14.0007C18.6654 11.4233 16.576 9.33398 13.9987 9.33398C11.4214 9.33398 9.33203 11.4233 9.33203 14.0007C9.33203 16.5779 11.4214 18.6673 13.9987 18.6673Z" fill="#8E55EA"/>
</svg>
