<svg width="28" height="28" viewBox="0 0 28 28" fill="none" xmlns="http://www.w3.org/2000/svg">
<path d="M4 10.6667V22.2222C4 22.8445 4 23.1554 4.1211 23.3931C4.22763 23.6022 4.39748 23.7725 4.60655 23.879C4.84399 24 5.15498 24 5.77604 24H17.3333M16.2221 15.1111V11.7778M16.2221 11.7778V8.44444M16.2221 11.7778H12.8888M16.2221 11.7778H19.5554M8.44439 16.0002V7.55577C8.44439 6.31121 8.44439 5.68847 8.6866 5.21311C8.89965 4.79497 9.23935 4.45526 9.65748 4.24221C10.1328 4 10.7556 4 12.0001 4H20.4445C21.689 4 22.311 4 22.7863 4.24221C23.2044 4.45526 23.5447 4.79497 23.7578 5.21311C24 5.68846 24 6.31077 24 7.55531L24 15.9998C24 17.2443 24 17.8666 23.7578 18.342C23.5447 18.7601 23.2044 19.1005 22.7863 19.3136C22.3114 19.5556 21.6903 19.5556 20.4482 19.5556H11.9965C10.7544 19.5556 10.1324 19.5556 9.65748 19.3136C9.23935 19.1005 8.89965 18.7602 8.6866 18.3421C8.44439 17.8667 8.44439 17.2448 8.44439 16.0002Z" stroke="#48DF7E" stroke-width="2" stroke-linecap="round" stroke-linejoin="round"/>
</svg>
