<svg width="250" height="65" viewBox="0 0 250 65" fill="none" xmlns="http://www.w3.org/2000/svg">
<path d="M6 33H244" stroke="#DDF444"/>
<rect x="36" y="15" width="177" height="35" rx="17.5" fill="#DDF444"/>
<path d="M87.4886 32.4545C87.4886 33.8651 87.2244 35.0732 86.696 36.0788C86.1719 37.0803 85.456 37.8473 84.5483 38.38C83.6449 38.9126 82.62 39.179 81.4737 39.179C80.3274 39.179 79.3004 38.9126 78.3928 38.38C77.4893 37.843 76.7734 37.0739 76.245 36.0724C75.7209 35.0668 75.4588 33.8608 75.4588 32.4545C75.4588 31.044 75.7209 29.8381 76.245 28.8366C76.7734 27.831 77.4893 27.0618 78.3928 26.5291C79.3004 25.9964 80.3274 25.7301 81.4737 25.7301C82.62 25.7301 83.6449 25.9964 84.5483 26.5291C85.456 27.0618 86.1719 27.831 86.696 28.8366C87.2244 29.8381 87.4886 31.044 87.4886 32.4545ZM85.1044 32.4545C85.1044 31.4616 84.9489 30.6243 84.6378 29.9425C84.331 29.2564 83.9048 28.7386 83.3594 28.3892C82.8139 28.0355 82.1854 27.8587 81.4737 27.8587C80.7621 27.8587 80.1335 28.0355 79.5881 28.3892C79.0426 28.7386 78.6143 29.2564 78.3033 29.9425C77.9964 30.6243 77.843 31.4616 77.843 32.4545C77.843 33.4474 77.9964 34.2869 78.3033 34.973C78.6143 35.6548 79.0426 36.1726 79.5881 36.5263C80.1335 36.8757 80.7621 37.0504 81.4737 37.0504C82.1854 37.0504 82.8139 36.8757 83.3594 36.5263C83.9048 36.1726 84.331 35.6548 84.6378 34.973C84.9489 34.2869 85.1044 33.4474 85.1044 32.4545ZM97.0828 25.9091H99.4542V34.4616C99.4542 35.3991 99.2326 36.2237 98.7895 36.9354C98.3505 37.647 97.7326 38.2031 96.9358 38.6037C96.1389 39 95.2078 39.1982 94.1424 39.1982C93.0728 39.1982 92.1396 39 91.3427 38.6037C90.5458 38.2031 89.9279 37.647 89.489 36.9354C89.0501 36.2237 88.8306 35.3991 88.8306 34.4616V25.9091H91.2021V34.2635C91.2021 34.8089 91.3214 35.2947 91.5601 35.7209C91.8029 36.147 92.1439 36.4815 92.5828 36.7244C93.0217 36.9631 93.5416 37.0824 94.1424 37.0824C94.7433 37.0824 95.2632 36.9631 95.7021 36.7244C96.1453 36.4815 96.4862 36.147 96.7248 35.7209C96.9635 35.2947 97.0828 34.8089 97.0828 34.2635V25.9091ZM101.132 39V25.9091H106.041C107.047 25.9091 107.89 26.0838 108.572 26.4332C109.258 26.7827 109.776 27.2727 110.125 27.9034C110.479 28.5298 110.656 29.2607 110.656 30.0959C110.656 30.9354 110.477 31.6641 110.119 32.282C109.765 32.8956 109.243 33.3707 108.553 33.7074C107.863 34.0398 107.015 34.206 106.009 34.206H102.513V32.2372H105.689C106.277 32.2372 106.759 32.1562 107.134 31.9943C107.509 31.8281 107.786 31.5874 107.965 31.272C108.148 30.9524 108.24 30.5604 108.24 30.0959C108.24 29.6314 108.148 29.2351 107.965 28.907C107.782 28.5746 107.503 28.3232 107.128 28.1527C106.753 27.978 106.269 27.8906 105.677 27.8906H103.503V39H101.132ZM107.895 33.0682L111.135 39H108.489L105.306 33.0682H107.895ZM115.504 39V25.9091H120.515C121.461 25.9091 122.247 26.0582 122.874 26.3565C123.504 26.6506 123.975 27.0533 124.286 27.5646C124.602 28.076 124.759 28.6555 124.759 29.3033C124.759 29.8359 124.657 30.2919 124.453 30.6712C124.248 31.0462 123.973 31.3509 123.628 31.5852C123.283 31.8196 122.897 31.9879 122.471 32.0902V32.218C122.936 32.2436 123.381 32.3864 123.807 32.6463C124.237 32.902 124.589 33.2642 124.862 33.733C125.134 34.2017 125.271 34.7685 125.271 35.4332C125.271 36.1108 125.107 36.7202 124.779 37.2614C124.45 37.7983 123.956 38.2223 123.296 38.5334C122.635 38.8445 121.804 39 120.803 39H115.504ZM117.875 37.0185H120.426C121.286 37.0185 121.906 36.8544 122.286 36.5263C122.669 36.1939 122.861 35.7678 122.861 35.2479C122.861 34.8601 122.765 34.5107 122.573 34.1996C122.382 33.8842 122.109 33.6371 121.755 33.4581C121.401 33.2749 120.98 33.1832 120.489 33.1832H117.875V37.0185ZM117.875 31.4766H120.221C120.63 31.4766 120.999 31.402 121.327 31.2528C121.655 31.0994 121.913 30.8842 122.1 30.6072C122.292 30.326 122.388 29.9936 122.388 29.6101C122.388 29.103 122.209 28.6854 121.851 28.3572C121.497 28.0291 120.971 27.8651 120.272 27.8651H117.875V31.4766ZM126.434 39V25.9091H131.343C132.349 25.9091 133.192 26.0838 133.874 26.4332C134.56 26.7827 135.078 27.2727 135.427 27.9034C135.781 28.5298 135.958 29.2607 135.958 30.0959C135.958 30.9354 135.779 31.6641 135.421 32.282C135.067 32.8956 134.545 33.3707 133.855 33.7074C133.165 34.0398 132.317 34.206 131.311 34.206H127.814V32.2372H130.991C131.579 32.2372 132.061 32.1562 132.436 31.9943C132.811 31.8281 133.088 31.5874 133.267 31.272C133.45 30.9524 133.542 30.5604 133.542 30.0959C133.542 29.6314 133.45 29.2351 133.267 28.907C133.084 28.5746 132.805 28.3232 132.43 28.1527C132.055 27.978 131.571 27.8906 130.979 27.8906H128.805V39H126.434ZM133.197 33.0682L136.437 39H133.791L130.608 33.0682H133.197ZM138.922 39H136.391L140.999 25.9091H143.927L148.542 39H146.011L142.514 28.5938H142.412L138.922 39ZM139.005 33.8672H145.908V35.772H139.005V33.8672ZM160.124 25.9091V39H158.015L151.846 30.0831H151.738V39H149.366V25.9091H151.488L157.65 34.8324H157.765V25.9091H160.124ZM166.244 39H161.808V25.9091H166.334C167.633 25.9091 168.75 26.1712 169.683 26.6953C170.62 27.2152 171.341 27.9631 171.844 28.9389C172.346 29.9148 172.598 31.0824 172.598 32.4418C172.598 33.8054 172.344 34.9773 171.837 35.9574C171.334 36.9375 170.608 37.6896 169.657 38.2138C168.711 38.7379 167.574 39 166.244 39ZM164.179 36.9482H166.129C167.041 36.9482 167.802 36.782 168.411 36.4496C169.02 36.1129 169.478 35.6122 169.785 34.9474C170.092 34.2784 170.245 33.4432 170.245 32.4418C170.245 31.4403 170.092 30.6094 169.785 29.9489C169.478 29.2841 169.025 28.7876 168.424 28.4595C167.827 28.1271 167.086 27.9609 166.199 27.9609H164.179V36.9482Z" fill="#232326"/>
<circle cx="3" cy="33" r="3" fill="#DDF444"/>
<circle cx="247" cy="33" r="3" fill="#DDF444"/>
</svg>
