<svg width="53" height="47" viewBox="0 0 53 47" fill="none" xmlns="http://www.w3.org/2000/svg">
<g clip-path="url(#clip0_2132_12770)">
<path d="M29.6251 30.8143H23.3749C18.9009 30.8143 15.2613 34.4446 15.2613 38.9072V45.0682C15.2613 46.1337 16.1298 47 17.1981 47H35.8019C36.8702 47 37.7387 46.1337 37.7387 45.0682V38.9072C37.7387 34.4446 34.0991 30.8143 29.6251 30.8143ZM36.0835 45.0682C36.0835 45.2199 35.9541 45.349 35.8019 45.349H31.6354V39.4048C31.6354 38.9485 31.2648 38.5799 30.8083 38.5799C30.3518 38.5799 29.9812 38.9495 29.9812 39.4048V45.349H23.0208V39.4048C23.0208 38.9485 22.6503 38.5799 22.1937 38.5799C21.7372 38.5799 21.3667 38.9495 21.3667 39.4048V45.349H17.2002C17.048 45.349 16.9186 45.2199 16.9186 45.0682V38.9072C16.9186 35.3553 19.816 32.4653 23.3769 32.4653H29.6272C33.1881 32.4653 36.0855 35.3553 36.0855 38.9072V45.0682H36.0835ZM20.5282 23.8428C20.5282 27.1272 23.2072 29.7994 26.5 29.7994C29.7928 29.7994 32.4687 27.1272 32.4687 23.8428C32.4687 20.5584 29.7908 17.8893 26.5 17.8893C23.2072 17.8893 20.5282 20.5604 20.5282 23.8428ZM30.8135 23.8428C30.8135 26.2165 28.8788 28.1484 26.5 28.1484C24.1212 28.1484 22.1834 26.2165 22.1834 23.8428C22.1834 21.469 24.1202 19.5403 26.5 19.5403C28.8798 19.5403 30.8135 21.4711 30.8135 23.8428ZM24.4918 13.56C25.027 14.0938 25.7402 14.3881 26.5 14.3881H26.5031C27.2619 14.3881 27.9741 14.0928 28.5061 13.56L33.9666 8.11555C35.8226 6.26116 35.8226 3.24312 33.9655 1.3877C33.0681 0.492509 31.8714 0 30.594 0C29.3167 0 28.12 0.492509 27.2225 1.3877L26.6004 2.00927C26.5455 2.06399 26.4545 2.06503 26.4006 2.01134L25.7754 1.3877C24.8779 0.492509 23.6813 0 22.4039 0C21.1265 0 19.9299 0.492509 19.0324 1.3877C17.1763 3.24209 17.1763 6.26013 19.0324 8.11555L24.4918 13.56ZM20.2042 2.55444C20.789 1.9721 21.5706 1.65099 22.4049 1.65099C23.2393 1.65099 24.0218 1.9721 24.6057 2.55547L25.2309 3.17911C25.9276 3.87502 27.0652 3.87502 27.7691 3.17911L28.3943 2.55547C29.6075 1.34536 31.5826 1.34433 32.7958 2.55547C34.008 3.76661 34.008 5.73871 32.7969 6.94985L27.3354 12.3953C27.1149 12.6163 26.8188 12.7381 26.5021 12.7381H26.5C26.1822 12.7381 25.8851 12.6163 25.6626 12.3943L20.2052 6.94881C18.992 5.73768 18.992 3.76558 20.2052 2.55444H20.2042ZM44.1525 9.15942C39.2759 9.15942 35.3081 13.1181 35.3081 17.9833C35.3081 22.8485 39.2759 26.8051 44.1525 26.8051C49.0291 26.8051 53 22.8475 53 17.9833C53 13.1191 49.0312 9.15942 44.1525 9.15942ZM44.1525 25.1541C40.1889 25.1541 36.9634 21.9378 36.9634 17.9833C36.9634 14.0288 40.1879 10.8094 44.1525 10.8094C48.1172 10.8094 51.3448 14.0277 51.3448 17.9833C51.3448 21.9388 48.1182 25.1541 44.1525 25.1541ZM46.4868 18.0793C47.0096 18.5873 47.2611 19.2512 47.1938 19.9492C47.1245 20.6647 46.7125 21.3348 46.0914 21.7416C45.758 21.9595 45.3781 22.1061 44.9806 22.1815V22.9011C44.9806 23.3575 44.6101 23.7261 44.1536 23.7261C43.6971 23.7261 43.3265 23.3565 43.3265 22.9011V22.0782C42.3607 21.7695 41.5946 21.0437 41.1692 20.0297C40.9932 19.6095 41.192 19.1252 41.6133 18.9497C42.0346 18.7732 42.5201 18.9714 42.6961 19.3927C43.0014 20.1206 43.4931 20.4045 43.8523 20.514C44.3068 20.6534 44.8306 20.5924 45.1856 20.3612C45.3906 20.2269 45.5262 20.0142 45.5479 19.7922C45.5665 19.5971 45.4951 19.4195 45.3347 19.2636C45.167 19.1015 44.7177 18.9951 44.283 18.8929C43.5739 18.7257 42.6909 18.5181 42.0449 17.8594C41.4911 17.2915 41.2686 16.4438 41.4611 15.6446C41.6599 14.8238 42.2478 14.1929 43.0749 13.9131C43.1577 13.8852 43.2416 13.8615 43.3254 13.8398V13.0644C43.3254 12.608 43.696 12.2394 44.1525 12.2394C44.609 12.2394 44.9796 12.6091 44.9796 13.0644V13.8068C45.2767 13.8708 45.5603 13.972 45.815 14.1114C46.4651 14.4665 46.9019 15.0282 47.0768 15.7345C47.1866 16.1774 46.9154 16.6245 46.4723 16.7339C46.0293 16.8434 45.58 16.5729 45.4703 16.131C45.4071 15.878 45.2601 15.6911 45.02 15.56C44.6401 15.3524 44.0707 15.3194 43.6039 15.4763C43.2426 15.5982 43.1132 15.8449 43.0677 16.0308C43.0076 16.2796 43.0697 16.545 43.2271 16.7061C43.5356 17.021 44.0821 17.149 44.6597 17.2853C45.315 17.4391 45.991 17.5992 46.4868 18.0793ZM15.7965 22.2982L15.4083 21.5382C15.6567 21.0819 15.8555 20.6017 16.0014 20.1072L16.812 19.8428C17.3233 19.6787 17.667 19.2068 17.667 18.6709V17.2925C17.667 16.7556 17.3233 16.2848 16.813 16.1206L16.0025 15.8594C15.8565 15.3638 15.6578 14.8857 15.4083 14.4283L15.7954 13.6694C16.0387 13.1924 15.9487 12.6173 15.5698 12.2404L14.5864 11.2596C14.2013 10.8848 13.6258 10.797 13.1599 11.0386L12.396 11.4268C11.9426 11.1811 11.4633 10.9828 10.9633 10.8342L10.6983 10.0216C10.5317 9.51358 10.0596 9.17181 9.52447 9.17181H8.14254C7.60736 9.17181 7.13533 9.51358 6.96764 10.0247L6.70574 10.8331C6.20473 10.9818 5.72338 11.1811 5.27309 11.4258L4.50914 11.0376C4.03193 10.7949 3.45639 10.8868 3.07648 11.2658L2.0993 12.2404C1.71939 12.6194 1.62727 13.1935 1.87053 13.6694L2.25975 14.4314C2.01338 14.8826 1.81463 15.3607 1.66557 15.8604L0.850898 16.1227C0.342637 16.2889 0 16.7598 0 17.2925V18.6709C0 19.2047 0.342637 19.6756 0.852969 19.8418L1.6666 20.1061C1.81566 20.6038 2.01545 21.0829 2.26078 21.5351L1.87467 22.292C1.63037 22.7628 1.71836 23.3369 2.10033 23.7261L3.07752 24.7008C3.45639 25.0787 4.03193 25.1685 4.51018 24.9259L5.27102 24.5397C5.72752 24.7875 6.20783 24.9858 6.70574 25.1324L6.96764 25.9398C7.13223 26.4499 7.60529 26.7927 8.14254 26.7927H9.52447C10.0628 26.7927 10.5348 26.4499 10.6983 25.9429L10.9644 25.1314C11.4592 24.9858 11.9385 24.7875 12.3991 24.5397L13.1548 24.9238C13.6278 25.1685 14.2034 25.0818 14.5936 24.7018L15.577 23.721C15.9518 23.3379 16.0387 22.7638 15.7965 22.2982ZM14.4673 19.4525C14.4673 19.4525 14.4653 19.4608 14.4642 19.4649C14.3328 19.9678 14.132 20.4531 13.8701 20.9012C13.6516 21.2667 13.6361 21.6972 13.8318 22.0875L14.1837 22.7772L13.6403 23.3193L12.9436 22.9652C12.5585 22.7731 12.1279 22.7886 11.7666 23.0023C11.3112 23.2677 10.8246 23.468 10.3205 23.5991C10.3164 23.6002 10.3122 23.6012 10.3081 23.6022C9.89713 23.7158 9.58762 24.0121 9.46029 24.4107L9.22014 25.1438H8.44895L8.21293 24.4158C8.08354 24.0121 7.77299 23.7158 7.35996 23.6022C7.35582 23.6012 7.35168 23.6002 7.34754 23.5991C6.84238 23.468 6.35689 23.2677 5.90971 23.0065C5.5443 22.7896 5.09918 22.7762 4.72135 22.9693L4.02986 23.3203L3.48434 22.7762L3.83836 22.0834C4.02779 21.7055 4.01641 21.2801 3.8042 20.9094C3.54023 20.4572 3.33734 19.9698 3.20484 19.4701C3.10029 19.0623 2.79699 18.7401 2.39225 18.609L1.65521 18.3694V17.6002L2.39328 17.3627C2.79699 17.2316 3.10029 16.9084 3.20381 16.5058C3.33941 15.9978 3.54127 15.5125 3.80937 15.0561C4.01744 14.6937 4.02676 14.2538 3.83732 13.8832L3.48641 13.1955L4.034 12.6493L4.72238 12.9983C5.09607 13.1883 5.53602 13.179 5.90764 12.9663C6.35586 12.704 6.84135 12.5027 7.35064 12.3674C7.75953 12.2621 8.08146 11.9596 8.21293 11.5559L8.44998 10.8228H9.22117L9.46133 11.559C9.59279 11.9627 9.91576 12.2652 10.3174 12.3674C10.8257 12.5017 11.3143 12.704 11.7739 12.9715C12.1393 13.18 12.5658 13.1904 12.9498 12.9993L13.6392 12.6493L14.1847 13.1935L13.8338 13.8821C13.6392 14.2611 13.6537 14.7051 13.868 15.0644C14.132 15.5145 14.3338 15.9988 14.4642 16.5027C14.4642 16.5068 14.4663 16.5109 14.4673 16.515C14.5812 16.927 14.8793 17.2368 15.2799 17.3638L16.0128 17.6002V18.3694L15.283 18.6069C14.8783 18.7339 14.5802 19.0426 14.4673 19.4525ZM8.83506 14.6028C6.9666 14.6028 5.44596 16.1196 5.44596 17.9833C5.44596 19.847 6.9666 21.3606 8.83506 21.3606C10.7035 21.3606 12.2211 19.8459 12.2211 17.9833C12.2221 16.1196 10.7025 14.6028 8.83506 14.6028ZM8.83506 19.7107C7.87857 19.7107 7.10117 18.9363 7.10117 17.9843C7.10117 17.0323 7.87857 16.2549 8.83506 16.2549C9.79154 16.2549 10.5658 17.0303 10.5658 17.9843C10.5669 18.9363 9.79051 19.7107 8.83506 19.7107Z" fill="#6A6A6A"/>
</g>
<defs>
<clipPath id="clip0_2132_12770">
<rect width="53" height="47" fill="white"/>
</clipPath>
</defs>
</svg>
