<svg width="1176" height="372" viewBox="0 0 1176 372" fill="none" xmlns="http://www.w3.org/2000/svg">
<g clip-path="url(#clip0_2132_12624)">
<rect width="1176" height="372" fill="#232326"/>
<path d="M-319 257.059L1734.28 257.059" stroke="#404456" stroke-opacity="0.8" stroke-width="0.5"/>
<path d="M-319 116.258L1734.28 116.258" stroke="#404456" stroke-opacity="0.8" stroke-width="0.5"/>
<path d="M-319 210.121L1734.28 210.121" stroke="#404456" stroke-opacity="0.8" stroke-width="0.5"/>
<path d="M-319 69.3242L1734.28 69.3242" stroke="#404456" stroke-opacity="0.8" stroke-width="0.5"/>
<path d="M-319 350.922L1734.28 350.922" stroke="#404456" stroke-opacity="0.8" stroke-width="0.5"/>
<path d="M-319 163.191L1734.28 163.191" stroke="#404456" stroke-opacity="0.8" stroke-width="0.5"/>
<path d="M-319 22.3945L1734.28 22.3945" stroke="#404456" stroke-opacity="0.8" stroke-width="0.5"/>
<path d="M-319 303.988L1734.28 303.988" stroke="#404456" stroke-opacity="0.8" stroke-width="0.5"/>
<path d="M47.2344 820.246L47.2342 -399.998" stroke="#404456" stroke-opacity="0.8" stroke-width="0.5"/>
<path d="M1134.12 820.246L1134.12 -399.998" stroke="#404456" stroke-opacity="0.8" stroke-width="0.5"/>
<path d="M756.078 820.246L756.078 -399.998" stroke="#404456" stroke-opacity="0.8" stroke-width="0.5"/>
<path d="M472.539 820.246L472.539 -399.998" stroke="#404456" stroke-opacity="0.8" stroke-width="0.5"/>
<path d="M614.309 820.246L614.308 -399.998" stroke="#404456" stroke-opacity="0.8" stroke-width="0.5"/>
<path d="M897.844 820.246L897.844 -399.998" stroke="#404456" stroke-opacity="0.8" stroke-width="0.5"/>
<path d="M330.773 820.246L330.773 -399.998" stroke="#404456" stroke-opacity="0.8" stroke-width="0.5"/>
<path d="M189.004 820.246L189.004 -399.998" stroke="#404456" stroke-opacity="0.8" stroke-width="0.5"/>
<path d="M-0.0195312 820.246L-0.0196763 -399.998" stroke="#404456" stroke-opacity="0.8" stroke-width="0.5"/>
<path d="M1039.61 820.246L1039.61 -399.998" stroke="#404456" stroke-opacity="0.8" stroke-width="0.5"/>
<path d="M708.82 820.246L708.82 -399.998" stroke="#404456" stroke-opacity="0.8" stroke-width="0.5"/>
<path d="M425.285 820.246L425.285 -399.998" stroke="#404456" stroke-opacity="0.8" stroke-width="0.5"/>
<path d="M567.051 820.246L567.051 -399.998" stroke="#404456" stroke-opacity="0.8" stroke-width="0.5"/>
<path d="M850.59 820.246L850.59 -399.998" stroke="#404456" stroke-opacity="0.8" stroke-width="0.5"/>
<path d="M283.516 820.246L283.515 -399.998" stroke="#404456" stroke-opacity="0.8" stroke-width="0.5"/>
<path d="M141.746 820.246L141.746 -399.998" stroke="#404456" stroke-opacity="0.8" stroke-width="0.5"/>
<path d="M1086.87 820.246L1086.87 -399.998" stroke="#404456" stroke-opacity="0.8" stroke-width="0.5"/>
<path d="M945.102 820.246L945.101 -399.998" stroke="#404456" stroke-opacity="0.8" stroke-width="0.5"/>
<path d="M661.566 820.246L661.566 -399.998" stroke="#404456" stroke-opacity="0.8" stroke-width="0.5"/>
<path d="M378.027 820.246L378.027 -399.998" stroke="#404456" stroke-opacity="0.8" stroke-width="0.5"/>
<path d="M519.797 820.246L519.797 -399.998" stroke="#404456" stroke-opacity="0.8" stroke-width="0.5"/>
<path d="M803.332 820.246L803.332 -399.998" stroke="#404456" stroke-opacity="0.8" stroke-width="0.5"/>
<path d="M236.258 820.246L236.258 -399.998" stroke="#404456" stroke-opacity="0.8" stroke-width="0.5"/>
<path d="M94.4922 820.246L94.492 -399.998" stroke="#404456" stroke-opacity="0.8" stroke-width="0.5"/>
<path d="M992.359 820.246L992.359 -399.998" stroke="#404456" stroke-opacity="0.8" stroke-width="0.5"/>
<circle cx="588.137" cy="371.337" r="280.524" fill="#8EA3FF" stroke="#6379DB" stroke-width="6"/>
<circle cx="588.305" cy="371.336" r="186.016" fill="white" stroke="#D3DBFF" stroke-width="6"/>
<circle cx="588.473" cy="371.336" r="91.508" fill="#DDF444" stroke="#CDE14D" stroke-width="6"/>
<g clip-path="url(#clip1_2132_12624)">
<path d="M565.329 143.172H562.529C562.478 142.81 562.374 142.488 562.216 142.207C562.058 141.921 561.856 141.678 561.609 141.478C561.362 141.278 561.076 141.124 560.752 141.018C560.433 140.911 560.085 140.858 559.71 140.858C559.033 140.858 558.442 141.026 557.94 141.363C557.437 141.695 557.047 142.181 556.77 142.82C556.493 143.455 556.354 144.227 556.354 145.134C556.354 146.067 556.493 146.852 556.77 147.487C557.051 148.121 557.443 148.601 557.946 148.925C558.449 149.249 559.031 149.411 559.691 149.411C560.062 149.411 560.405 149.362 560.72 149.263C561.04 149.165 561.323 149.023 561.57 148.835C561.817 148.643 562.022 148.411 562.184 148.138C562.35 147.866 562.465 147.555 562.529 147.205L565.329 147.218C565.256 147.819 565.075 148.398 564.786 148.957C564.5 149.511 564.114 150.007 563.629 150.446C563.147 150.881 562.572 151.226 561.903 151.482C561.238 151.733 560.486 151.859 559.646 151.859C558.479 151.859 557.435 151.594 556.514 151.066C555.598 150.538 554.874 149.773 554.341 148.771C553.812 147.77 553.548 146.558 553.548 145.134C553.548 143.707 553.817 142.492 554.354 141.491C554.891 140.489 555.619 139.727 556.54 139.202C557.46 138.674 558.496 138.41 559.646 138.41C560.405 138.41 561.108 138.516 561.756 138.729C562.408 138.942 562.985 139.254 563.488 139.663C563.991 140.067 564.4 140.564 564.715 141.152C565.035 141.74 565.239 142.413 565.329 143.172ZM571.699 151.871C570.706 151.871 569.847 151.661 569.123 151.239C568.402 150.812 567.846 150.22 567.454 149.462C567.062 148.699 566.866 147.815 566.866 146.809C566.866 145.795 567.062 144.908 567.454 144.15C567.846 143.387 568.402 142.795 569.123 142.373C569.847 141.947 570.706 141.734 571.699 141.734C572.691 141.734 573.548 141.947 574.268 142.373C574.993 142.795 575.551 143.387 575.943 144.15C576.335 144.908 576.531 145.795 576.531 146.809C576.531 147.815 576.335 148.699 575.943 149.462C575.551 150.22 574.993 150.812 574.268 151.239C573.548 151.661 572.691 151.871 571.699 151.871ZM571.711 149.762C572.163 149.762 572.54 149.634 572.843 149.379C573.145 149.119 573.373 148.765 573.527 148.317C573.684 147.87 573.763 147.361 573.763 146.79C573.763 146.219 573.684 145.71 573.527 145.262C573.373 144.815 573.145 144.461 572.843 144.201C572.54 143.941 572.163 143.811 571.711 143.811C571.255 143.811 570.872 143.941 570.561 144.201C570.254 144.461 570.022 144.815 569.864 145.262C569.711 145.71 569.634 146.219 569.634 146.79C569.634 147.361 569.711 147.87 569.864 148.317C570.022 148.765 570.254 149.119 570.561 149.379C570.872 149.634 571.255 149.762 571.711 149.762ZM581.025 146.004V151.68H578.301V141.862H580.897V143.594H581.012C581.229 143.023 581.593 142.571 582.105 142.239C582.616 141.902 583.236 141.734 583.965 141.734C584.647 141.734 585.241 141.883 585.748 142.181C586.255 142.479 586.65 142.906 586.931 143.46C587.212 144.009 587.353 144.665 587.353 145.428V151.68H584.63V145.914C584.634 145.313 584.48 144.844 584.169 144.508C583.858 144.167 583.43 143.996 582.885 143.996C582.518 143.996 582.194 144.075 581.913 144.233C581.636 144.391 581.419 144.621 581.261 144.923C581.108 145.222 581.029 145.582 581.025 146.004ZM594.721 141.862V143.907H588.808V141.862H594.721ZM590.151 139.509H592.874V148.663C592.874 148.914 592.912 149.11 592.989 149.251C593.066 149.387 593.172 149.483 593.308 149.538C593.449 149.594 593.611 149.621 593.794 149.621C593.922 149.621 594.05 149.611 594.178 149.589C594.306 149.564 594.404 149.545 594.472 149.532L594.9 151.558C594.764 151.601 594.572 151.65 594.325 151.705C594.078 151.765 593.777 151.801 593.423 151.814C592.767 151.839 592.192 151.752 591.698 151.552C591.208 151.352 590.826 151.04 590.553 150.619C590.281 150.197 590.146 149.664 590.151 149.021V139.509ZM600.864 151.871C599.854 151.871 598.985 151.667 598.256 151.258C597.531 150.844 596.973 150.261 596.581 149.506C596.189 148.748 595.993 147.851 595.993 146.815C595.993 145.805 596.189 144.919 596.581 144.156C596.973 143.393 597.525 142.799 598.237 142.373C598.953 141.947 599.792 141.734 600.755 141.734C601.403 141.734 602.006 141.838 602.564 142.047C603.127 142.251 603.617 142.56 604.034 142.974C604.456 143.387 604.784 143.907 605.019 144.533C605.253 145.156 605.37 145.884 605.37 146.719V147.467H597.08V145.78H602.807C602.807 145.388 602.722 145.04 602.551 144.738C602.381 144.435 602.144 144.199 601.842 144.028C601.544 143.854 601.196 143.766 600.8 143.766C600.387 143.766 600.02 143.862 599.7 144.054C599.385 144.241 599.138 144.495 598.959 144.815C598.78 145.13 598.688 145.482 598.684 145.869V147.474C598.684 147.96 598.774 148.379 598.953 148.733C599.136 149.087 599.394 149.359 599.726 149.551C600.058 149.743 600.453 149.839 600.909 149.839C601.211 149.839 601.488 149.796 601.74 149.711C601.991 149.626 602.206 149.498 602.385 149.327C602.564 149.157 602.7 148.948 602.794 148.701L605.313 148.867C605.185 149.472 604.923 150.001 604.526 150.452C604.134 150.9 603.627 151.249 603.005 151.501C602.387 151.748 601.673 151.871 600.864 151.871ZM609.247 141.862L611.05 145.294L612.897 141.862H615.69L612.846 146.771L615.767 151.68H612.986L611.05 148.286L609.145 151.68H606.332L609.247 146.771L606.434 141.862H609.247ZM622.53 141.862V143.907H616.617V141.862H622.53ZM617.959 139.509H620.682V148.663C620.682 148.914 620.721 149.11 620.797 149.251C620.874 149.387 620.981 149.483 621.117 149.538C621.258 149.594 621.42 149.621 621.603 149.621C621.731 149.621 621.858 149.611 621.986 149.589C622.114 149.564 622.212 149.545 622.28 149.532L622.709 151.558C622.572 151.601 622.381 151.65 622.133 151.705C621.886 151.765 621.586 151.801 621.232 151.814C620.576 151.839 620.001 151.752 619.506 151.552C619.016 151.352 618.635 151.04 618.362 150.619C618.089 150.197 617.955 149.664 617.959 149.021V139.509Z" fill="black"/>
</g>
<g clip-path="url(#clip2_2132_12624)">
<path d="M547.775 246.355V233.265H552.939C553.932 233.265 554.778 233.454 555.477 233.833C556.176 234.208 556.708 234.73 557.075 235.4C557.446 236.064 557.631 236.831 557.631 237.701C557.631 238.57 557.444 239.337 557.069 240.002C556.694 240.667 556.15 241.184 555.439 241.555C554.731 241.926 553.875 242.111 552.869 242.111H549.577V239.893H552.422C552.954 239.893 553.393 239.801 553.738 239.618C554.088 239.431 554.348 239.173 554.518 238.845C554.693 238.512 554.78 238.131 554.78 237.701C554.78 237.266 554.693 236.887 554.518 236.563C554.348 236.235 554.088 235.981 553.738 235.802C553.389 235.619 552.946 235.527 552.409 235.527H550.542V246.355H547.775ZM559.378 246.355V236.537H562.018V238.25H562.12C562.299 237.641 562.599 237.181 563.021 236.87C563.443 236.554 563.929 236.397 564.479 236.397C564.615 236.397 564.762 236.405 564.92 236.422C565.077 236.439 565.216 236.463 565.335 236.493V238.909C565.207 238.87 565.03 238.836 564.805 238.806C564.579 238.777 564.372 238.762 564.184 238.762C563.784 238.762 563.426 238.849 563.111 239.024C562.8 239.194 562.552 239.433 562.369 239.74C562.19 240.047 562.101 240.4 562.101 240.801V246.355H559.378ZM570.722 246.547C569.729 246.547 568.87 246.336 568.146 245.914C567.426 245.488 566.87 244.896 566.478 244.137C566.086 243.375 565.89 242.49 565.89 241.485C565.89 240.471 566.086 239.584 566.478 238.826C566.87 238.063 567.426 237.471 568.146 237.049C568.87 236.623 569.729 236.409 570.722 236.409C571.715 236.409 572.571 236.623 573.292 237.049C574.016 237.471 574.574 238.063 574.966 238.826C575.358 239.584 575.554 240.471 575.554 241.485C575.554 242.49 575.358 243.375 574.966 244.137C574.574 244.896 574.016 245.488 573.292 245.914C572.571 246.336 571.715 246.547 570.722 246.547ZM570.735 244.438C571.186 244.438 571.564 244.31 571.866 244.054C572.169 243.794 572.397 243.441 572.55 242.993C572.708 242.546 572.787 242.037 572.787 241.466C572.787 240.895 572.708 240.385 572.55 239.938C572.397 239.49 572.169 239.137 571.866 238.877C571.564 238.617 571.186 238.487 570.735 238.487C570.279 238.487 569.895 238.617 569.584 238.877C569.277 239.137 569.045 239.49 568.887 239.938C568.734 240.385 568.657 240.895 568.657 241.466C568.657 242.037 568.734 242.546 568.887 242.993C569.045 243.441 569.277 243.794 569.584 244.054C569.895 244.31 570.279 244.438 570.735 244.438ZM577.376 246.355V233.265H580.099V238.186H580.182C580.301 237.922 580.474 237.654 580.7 237.381C580.93 237.104 581.228 236.874 581.595 236.691C581.966 236.503 582.426 236.409 582.975 236.409C583.691 236.409 584.352 236.597 584.957 236.972C585.562 237.343 586.046 237.903 586.408 238.653C586.77 239.399 586.951 240.334 586.951 241.459C586.951 242.554 586.775 243.479 586.421 244.233C586.071 244.983 585.594 245.552 584.989 245.94C584.388 246.324 583.715 246.515 582.969 246.515C582.441 246.515 581.991 246.428 581.62 246.253C581.254 246.078 580.953 245.859 580.719 245.595C580.485 245.326 580.306 245.056 580.182 244.783H580.061V246.355H577.376ZM580.042 241.446C580.042 242.03 580.123 242.539 580.284 242.974C580.446 243.409 580.681 243.748 580.988 243.99C581.294 244.229 581.667 244.348 582.106 244.348C582.549 244.348 582.924 244.227 583.231 243.984C583.538 243.737 583.77 243.396 583.928 242.961C584.09 242.522 584.171 242.017 584.171 241.446C584.171 240.88 584.092 240.381 583.934 239.951C583.777 239.52 583.544 239.184 583.238 238.941C582.931 238.698 582.554 238.576 582.106 238.576C581.663 238.576 581.288 238.694 580.981 238.928C580.679 239.162 580.446 239.495 580.284 239.925C580.123 240.355 580.042 240.863 580.042 241.446ZM591.491 233.265V246.355H588.768V233.265H591.491ZM598.147 246.547C597.137 246.547 596.268 246.343 595.539 245.934C594.815 245.52 594.256 244.936 593.864 244.182C593.472 243.424 593.276 242.527 593.276 241.491C593.276 240.481 593.472 239.595 593.864 238.832C594.256 238.069 594.808 237.475 595.52 237.049C596.236 236.623 597.075 236.409 598.038 236.409C598.686 236.409 599.289 236.514 599.847 236.723C600.41 236.927 600.9 237.236 601.317 237.65C601.739 238.063 602.067 238.583 602.302 239.209C602.536 239.831 602.653 240.56 602.653 241.395V242.143H594.363V240.456H600.09C600.09 240.064 600.005 239.716 599.835 239.414C599.664 239.111 599.428 238.875 599.125 238.704C598.827 238.529 598.479 238.442 598.083 238.442C597.67 238.442 597.303 238.538 596.984 238.73C596.668 238.917 596.421 239.171 596.242 239.49C596.063 239.806 595.972 240.157 595.967 240.545V242.15C595.967 242.635 596.057 243.055 596.236 243.409C596.419 243.762 596.677 244.035 597.009 244.227C597.342 244.419 597.736 244.515 598.192 244.515C598.494 244.515 598.771 244.472 599.023 244.387C599.274 244.301 599.489 244.174 599.668 244.003C599.847 243.833 599.984 243.624 600.077 243.377L602.596 243.543C602.468 244.148 602.206 244.676 601.81 245.128C601.418 245.576 600.911 245.925 600.288 246.176C599.67 246.424 598.957 246.547 598.147 246.547ZM604.43 246.355V236.537H607.026V238.27H607.141C607.345 237.694 607.686 237.24 608.163 236.908C608.641 236.576 609.212 236.409 609.876 236.409C610.55 236.409 611.123 236.578 611.596 236.914C612.069 237.247 612.384 237.699 612.542 238.27H612.644C612.844 237.707 613.207 237.257 613.731 236.921C614.259 236.58 614.884 236.409 615.604 236.409C616.52 236.409 617.263 236.701 617.835 237.285C618.41 237.865 618.697 238.687 618.697 239.752V246.355H615.981V240.289C615.981 239.744 615.836 239.335 615.546 239.062C615.256 238.789 614.894 238.653 614.46 238.653C613.965 238.653 613.58 238.811 613.303 239.126C613.026 239.437 612.887 239.848 612.887 240.36V246.355H610.247V240.232C610.247 239.75 610.109 239.367 609.832 239.081C609.559 238.796 609.199 238.653 608.751 238.653C608.449 238.653 608.176 238.73 607.933 238.883C607.695 239.032 607.505 239.243 607.364 239.516C607.224 239.784 607.153 240.1 607.153 240.462V246.355H604.43ZM629.017 239.337L626.525 239.49C626.482 239.277 626.39 239.086 626.25 238.915C626.109 238.74 625.924 238.602 625.694 238.5C625.468 238.393 625.197 238.34 624.882 238.34C624.46 238.34 624.104 238.429 623.814 238.608C623.525 238.783 623.38 239.017 623.38 239.311C623.38 239.546 623.473 239.744 623.661 239.906C623.848 240.068 624.17 240.198 624.626 240.296L626.403 240.654C627.358 240.85 628.069 241.165 628.538 241.6C629.007 242.034 629.241 242.605 629.241 243.313C629.241 243.956 629.051 244.521 628.672 245.007C628.297 245.493 627.782 245.872 627.125 246.145C626.473 246.413 625.721 246.547 624.869 246.547C623.569 246.547 622.534 246.277 621.762 245.735C620.995 245.19 620.546 244.449 620.414 243.511L623.092 243.37C623.173 243.767 623.369 244.069 623.68 244.278C623.991 244.483 624.39 244.585 624.875 244.585C625.353 244.585 625.736 244.493 626.026 244.31C626.32 244.123 626.469 243.882 626.473 243.588C626.469 243.341 626.365 243.138 626.16 242.98C625.956 242.819 625.64 242.695 625.214 242.61L623.514 242.271C622.555 242.079 621.841 241.747 621.373 241.274C620.908 240.801 620.676 240.198 620.676 239.465C620.676 238.834 620.846 238.291 621.187 237.835C621.532 237.379 622.016 237.027 622.638 236.78C623.265 236.533 623.998 236.409 624.837 236.409C626.077 236.409 627.053 236.672 627.765 237.196C628.48 237.72 628.898 238.434 629.017 239.337Z" fill="black"/>
</g>
<g clip-path="url(#clip3_2132_12624)">
<path d="M571.728 327.936V341.027H569.337L563.642 332.788H563.546V341.027H560.778V327.936H563.207L568.858 336.169H568.973V327.936H571.728ZM578.438 341.219C577.428 341.219 576.559 341.015 575.83 340.605C575.106 340.192 574.547 339.608 574.155 338.854C573.763 338.096 573.567 337.199 573.567 336.163C573.567 335.153 573.763 334.267 574.155 333.504C574.547 332.741 575.099 332.147 575.811 331.721C576.527 331.294 577.366 331.081 578.329 331.081C578.977 331.081 579.58 331.186 580.138 331.395C580.701 331.599 581.191 331.908 581.608 332.321C582.03 332.735 582.358 333.255 582.593 333.881C582.827 334.503 582.944 335.232 582.944 336.067V336.815H574.654V335.127H580.381C580.381 334.735 580.296 334.388 580.126 334.086C579.955 333.783 579.719 333.547 579.416 333.376C579.118 333.201 578.77 333.114 578.374 333.114C577.961 333.114 577.594 333.21 577.275 333.402C576.959 333.589 576.712 333.843 576.533 334.162C576.354 334.478 576.263 334.829 576.258 335.217V336.821C576.258 337.307 576.348 337.727 576.527 338.081C576.71 338.434 576.968 338.707 577.3 338.899C577.633 339.091 578.027 339.186 578.483 339.186C578.785 339.186 579.062 339.144 579.314 339.059C579.565 338.973 579.78 338.846 579.959 338.675C580.138 338.505 580.275 338.296 580.368 338.049L582.887 338.215C582.759 338.82 582.497 339.348 582.101 339.8C581.709 340.248 581.202 340.597 580.579 340.848C579.961 341.096 579.248 341.219 578.438 341.219ZM589.196 341.219C588.186 341.219 587.317 341.015 586.588 340.605C585.863 340.192 585.305 339.608 584.913 338.854C584.521 338.096 584.325 337.199 584.325 336.163C584.325 335.153 584.521 334.267 584.913 333.504C585.305 332.741 585.857 332.147 586.569 331.721C587.285 331.294 588.124 331.081 589.087 331.081C589.735 331.081 590.338 331.186 590.896 331.395C591.459 331.599 591.949 331.908 592.366 332.321C592.788 332.735 593.116 333.255 593.351 333.881C593.585 334.503 593.702 335.232 593.702 336.067V336.815H585.412V335.127H591.139C591.139 334.735 591.054 334.388 590.883 334.086C590.713 333.783 590.476 333.547 590.174 333.376C589.876 333.201 589.528 333.114 589.132 333.114C588.719 333.114 588.352 333.21 588.032 333.402C587.717 333.589 587.47 333.843 587.291 334.162C587.112 334.478 587.02 334.829 587.016 335.217V336.821C587.016 337.307 587.106 337.727 587.285 338.081C587.468 338.434 587.726 338.707 588.058 338.899C588.39 339.091 588.785 339.186 589.241 339.186C589.543 339.186 589.82 339.144 590.072 339.059C590.323 338.973 590.538 338.846 590.717 338.675C590.896 338.505 591.032 338.296 591.126 338.049L593.645 338.215C593.517 338.82 593.255 339.348 592.858 339.8C592.466 340.248 591.959 340.597 591.337 340.848C590.719 341.096 590.006 341.219 589.196 341.219ZM599.097 341.187C598.351 341.187 597.676 340.995 597.071 340.612C596.47 340.224 595.993 339.655 595.639 338.905C595.29 338.151 595.115 337.226 595.115 336.131C595.115 335.006 595.296 334.071 595.658 333.325C596.02 332.575 596.502 332.015 597.103 331.644C597.708 331.269 598.371 331.081 599.091 331.081C599.64 331.081 600.099 331.175 600.465 331.363C600.836 331.546 601.134 331.776 601.36 332.053C601.59 332.326 601.765 332.594 601.884 332.858H601.967V327.936H604.684V341.027H601.999V339.455H601.884C601.756 339.728 601.575 339.998 601.341 340.267C601.111 340.531 600.81 340.75 600.439 340.925C600.073 341.1 599.626 341.187 599.097 341.187ZM599.96 339.02C600.399 339.02 600.77 338.901 601.072 338.662C601.379 338.419 601.613 338.081 601.775 337.646C601.942 337.211 602.025 336.702 602.025 336.118C602.025 335.534 601.944 335.027 601.782 334.597C601.62 334.167 601.385 333.834 601.079 333.6C600.772 333.365 600.399 333.248 599.96 333.248C599.513 333.248 599.135 333.37 598.829 333.613C598.522 333.855 598.29 334.192 598.132 334.623C597.974 335.053 597.895 335.551 597.895 336.118C597.895 336.689 597.974 337.194 598.132 337.633C598.294 338.068 598.526 338.409 598.829 338.656C599.135 338.899 599.513 339.02 599.96 339.02ZM615.092 334.009L612.599 334.162C612.556 333.949 612.464 333.757 612.324 333.587C612.183 333.412 611.998 333.274 611.768 333.172C611.542 333.065 611.271 333.012 610.956 333.012C610.534 333.012 610.178 333.101 609.888 333.28C609.599 333.455 609.454 333.689 609.454 333.983C609.454 334.218 609.548 334.416 609.735 334.578C609.923 334.74 610.244 334.87 610.7 334.968L612.477 335.326C613.432 335.522 614.143 335.837 614.612 336.272C615.081 336.706 615.315 337.277 615.315 337.985C615.315 338.628 615.126 339.193 614.746 339.679C614.371 340.164 613.856 340.544 613.2 340.816C612.548 341.085 611.795 341.219 610.943 341.219C609.643 341.219 608.608 340.949 607.837 340.407C607.07 339.862 606.62 339.12 606.488 338.183L609.166 338.042C609.247 338.439 609.443 338.741 609.754 338.95C610.065 339.154 610.464 339.257 610.95 339.257C611.427 339.257 611.81 339.165 612.1 338.982C612.394 338.794 612.543 338.554 612.548 338.26C612.543 338.012 612.439 337.81 612.234 337.652C612.03 337.49 611.714 337.367 611.288 337.282L609.588 336.943C608.629 336.751 607.915 336.419 607.447 335.946C606.982 335.473 606.75 334.87 606.75 334.137C606.75 333.506 606.92 332.963 607.261 332.507C607.607 332.051 608.09 331.699 608.712 331.452C609.339 331.205 610.072 331.081 610.911 331.081C612.151 331.081 613.127 331.343 613.839 331.868C614.555 332.392 614.972 333.105 615.092 334.009Z" fill="black"/>
</g>
<circle cx="588.138" cy="372.333" r="382.681" stroke="#A7B7FF" stroke-opacity="0.4" stroke-dasharray="4 4"/>
<path d="M820.839 172.929C842.464 198.14 860.062 226.905 872.637 258.229C886.795 293.496 894.586 332.006 894.586 372.336C894.586 541.581 757.385 678.781 588.14 678.781C418.895 678.781 281.695 541.581 281.695 372.336C281.695 296.187 309.47 226.525 355.441 172.929C372.394 153.164 391.821 135.584 413.242 120.669C427.817 110.522 443.314 101.608 459.583 94.079C498.678 75.9864 542.23 65.8906 588.14 65.8906C628.85 65.8906 667.706 73.8288 703.244 88.2417" stroke="#A7B7FF" stroke-opacity="0.5"/>
<circle cx="588.139" cy="372.334" r="532.166" stroke="#A7B7FF" stroke-opacity="0.2" stroke-dasharray="4 4"/>
<path d="M583.77 320.383C583.037 320.38 582.406 320.2 581.878 319.842C581.352 319.484 580.947 318.966 580.663 318.287C580.382 317.608 580.243 316.791 580.246 315.836C580.246 314.885 580.386 314.074 580.668 313.403C580.952 312.733 581.357 312.223 581.882 311.873C582.411 311.521 583.04 311.345 583.77 311.345C584.5 311.345 585.128 311.521 585.653 311.873C586.182 312.225 586.588 312.737 586.872 313.407C587.156 314.075 587.297 314.885 587.294 315.836C587.294 316.794 587.152 317.612 586.868 318.291C586.587 318.97 586.183 319.488 585.658 319.846C585.132 320.204 584.503 320.383 583.77 320.383ZM583.77 318.853C584.27 318.853 584.669 318.602 584.967 318.099C585.266 317.596 585.413 316.842 585.411 315.836C585.411 315.174 585.342 314.623 585.206 314.183C585.072 313.743 584.882 313.412 584.635 313.19C584.391 312.968 584.102 312.858 583.77 312.858C583.273 312.858 582.875 313.106 582.577 313.603C582.278 314.1 582.128 314.845 582.125 315.836C582.125 316.507 582.192 317.066 582.325 317.515C582.462 317.961 582.653 318.297 582.901 318.521C583.148 318.743 583.438 318.853 583.77 318.853ZM591.836 320.311C591.199 320.311 590.632 320.201 590.135 319.983C589.641 319.761 589.25 319.457 588.963 319.071C588.679 318.681 588.533 318.233 588.525 317.724H590.382C590.394 317.937 590.463 318.125 590.591 318.287C590.722 318.446 590.895 318.569 591.111 318.657C591.327 318.745 591.57 318.789 591.84 318.789C592.121 318.789 592.37 318.74 592.586 318.64C592.801 318.541 592.971 318.403 593.093 318.227C593.215 318.051 593.276 317.848 593.276 317.618C593.276 317.385 593.211 317.179 593.08 317C592.952 316.818 592.767 316.676 592.526 316.574C592.287 316.471 592.003 316.42 591.674 316.42H590.86V315.065H591.674C591.952 315.065 592.198 315.017 592.411 314.92C592.627 314.824 592.794 314.69 592.914 314.52C593.033 314.346 593.093 314.145 593.093 313.914C593.093 313.696 593.04 313.504 592.935 313.339C592.833 313.172 592.688 313.041 592.5 312.947C592.316 312.853 592.1 312.806 591.853 312.806C591.603 312.806 591.374 312.852 591.167 312.943C590.959 313.031 590.793 313.157 590.668 313.322C590.543 313.487 590.476 313.68 590.468 313.902H588.699C588.708 313.399 588.851 312.956 589.13 312.572C589.408 312.189 589.783 311.889 590.255 311.673C590.729 311.454 591.265 311.345 591.861 311.345C592.463 311.345 592.99 311.454 593.442 311.673C593.894 311.892 594.245 312.187 594.495 312.559C594.748 312.929 594.873 313.343 594.87 313.804C594.873 314.292 594.721 314.7 594.414 315.027C594.11 315.353 593.713 315.561 593.225 315.649V315.717C593.867 315.799 594.355 316.022 594.691 316.386C595.029 316.747 595.196 317.199 595.194 317.741C595.196 318.238 595.053 318.68 594.763 319.066C594.476 319.453 594.08 319.757 593.574 319.978C593.069 320.2 592.489 320.311 591.836 320.311Z" fill="black"/>
<path d="M583.77 226.036C583.037 226.033 582.406 225.852 581.878 225.494C581.352 225.136 580.947 224.618 580.663 223.939C580.382 223.26 580.243 222.443 580.246 221.489C580.246 220.537 580.386 219.726 580.668 219.055C580.952 218.385 581.357 217.875 581.882 217.526C582.411 217.173 583.04 216.997 583.77 216.997C584.5 216.997 585.128 217.173 585.653 217.526C586.182 217.878 586.588 218.389 586.872 219.06C587.156 219.727 587.297 220.537 587.294 221.489C587.294 222.446 587.152 223.264 586.868 223.943C586.587 224.622 586.183 225.141 585.658 225.499C585.132 225.857 584.503 226.036 583.77 226.036ZM583.77 224.506C584.27 224.506 584.669 224.254 584.967 223.751C585.266 223.249 585.413 222.494 585.411 221.489C585.411 220.827 585.342 220.276 585.206 219.835C585.072 219.395 584.882 219.064 584.635 218.842C584.391 218.621 584.102 218.51 583.77 218.51C583.273 218.51 582.875 218.759 582.577 219.256C582.278 219.753 582.128 220.497 582.125 221.489C582.125 222.159 582.192 222.719 582.325 223.168C582.462 223.614 582.653 223.949 582.901 224.173C583.148 224.395 583.438 224.506 583.77 224.506ZM588.61 225.844V224.514L591.716 221.638C591.98 221.382 592.202 221.152 592.381 220.947C592.563 220.743 592.701 220.543 592.794 220.347C592.888 220.148 592.935 219.933 592.935 219.703C592.935 219.447 592.877 219.227 592.76 219.043C592.644 218.855 592.485 218.712 592.283 218.612C592.081 218.51 591.853 218.459 591.597 218.459C591.33 218.459 591.097 218.513 590.898 218.621C590.699 218.729 590.546 218.884 590.438 219.085C590.33 219.287 590.276 219.527 590.276 219.805H588.525C588.525 219.234 588.654 218.739 588.912 218.318C589.171 217.898 589.533 217.572 589.999 217.342C590.465 217.112 591.002 216.997 591.61 216.997C592.235 216.997 592.779 217.108 593.242 217.33C593.708 217.548 594.07 217.852 594.328 218.241C594.587 218.631 594.716 219.077 594.716 219.58C594.716 219.909 594.651 220.234 594.52 220.555C594.392 220.876 594.164 221.233 593.834 221.625C593.505 222.014 593.04 222.482 592.441 223.027L591.167 224.276V224.335H594.831V225.844H588.61Z" fill="black"/>
<path d="M584.77 131.684C584.037 131.681 583.406 131.501 582.878 131.143C582.352 130.785 581.947 130.266 581.663 129.587C581.382 128.908 581.243 128.092 581.246 127.137C581.246 126.185 581.386 125.374 581.668 124.704C581.952 124.033 582.357 123.523 582.882 123.174C583.411 122.822 584.04 122.646 584.77 122.646C585.5 122.646 586.128 122.822 586.653 123.174C587.182 123.526 587.588 124.038 587.872 124.708C588.156 125.376 588.297 126.185 588.294 127.137C588.294 128.094 588.152 128.913 587.868 129.592C587.587 130.271 587.183 130.789 586.658 131.147C586.132 131.505 585.503 131.684 584.77 131.684ZM584.77 130.154C585.27 130.154 585.669 129.903 585.967 129.4C586.266 128.897 586.413 128.143 586.411 127.137C586.411 126.475 586.342 125.924 586.206 125.484C586.072 125.043 585.882 124.712 585.635 124.491C585.391 124.269 585.102 124.158 584.77 124.158C584.273 124.158 583.875 124.407 583.577 124.904C583.278 125.401 583.128 126.146 583.125 127.137C583.125 127.808 583.192 128.367 583.325 128.816C583.462 129.262 583.653 129.597 583.901 129.822C584.148 130.043 584.438 130.154 584.77 130.154ZM593.407 122.765V131.492H591.561V124.516H591.51L589.512 125.769V124.133L591.672 122.765H593.407Z" fill="black"/>
<ellipse cx="822.141" cy="174.476" rx="3.5" ry="3.47603" fill="#656D92"/>
<ellipse cx="704.141" cy="88.476" rx="3.5" ry="3.47603" fill="#656D92"/>
</g>
<defs>
<clipPath id="clip0_2132_12624">
<rect width="1176" height="372" fill="white"/>
</clipPath>
<clipPath id="clip1_2132_12624">
<rect width="71" height="37" fill="white" transform="translate(552.641 126.68)"/>
</clipPath>
<clipPath id="clip2_2132_12624">
<rect width="84" height="37" fill="white" transform="translate(546.637 221.355)"/>
</clipPath>
<clipPath id="clip3_2132_12624">
<rect width="57" height="37" fill="white" transform="translate(559.641 316.027)"/>
</clipPath>
</defs>
</svg>
