<svg width="48" height="48" viewBox="0 0 48 48" fill="none" xmlns="http://www.w3.org/2000/svg">
<g clip-path="url(#clip0_2132_12752)">
<path d="M8.76281 6.1564C8.87378 6.34799 9.0528 6.4841 9.2674 6.54063C9.33754 6.55948 9.40873 6.56786 9.47887 6.56786C9.62334 6.56786 9.76571 6.53016 9.89343 6.45478C10.084 6.34485 10.219 6.16582 10.2755 5.95224C10.3321 5.73866 10.3028 5.51671 10.1918 5.32721L8.9167 3.11394C8.68744 2.72133 8.17971 2.58627 7.78609 2.81346C7.39352 3.04274 7.25847 3.55052 7.48459 3.94313L8.76177 6.1564H8.76281Z" fill="#6A6A6A"/>
<path d="M3.75311 12.5935C3.97714 12.1988 3.84 11.6931 3.44742 11.4669L1.23749 10.1928C1.04592 10.0818 0.822937 10.0535 0.609376 10.1111C0.395816 10.1687 0.218896 10.3048 0.110022 10.4954C-0.117147 10.889 0.0189453 11.3947 0.412566 11.6229L2.62459 12.9002H2.62564C2.7544 12.9735 2.89468 13.0081 3.03287 13.0081C3.31971 13.0081 3.59922 12.8594 3.75206 12.5935H3.75311Z" fill="#6A6A6A"/>
<path d="M26.668 6.45312C26.7967 6.52745 26.9381 6.56305 27.0783 6.56305C27.3641 6.56305 27.6426 6.41543 27.7954 6.15055L29.0695 3.93832C29.2967 3.54571 29.1606 3.03898 28.7669 2.81075C28.3712 2.5867 27.8666 2.72385 27.6405 3.11646L26.3633 5.32868C26.2534 5.52028 26.2252 5.74328 26.2838 5.95686C26.3414 6.16939 26.4785 6.34528 26.668 6.45312Z" fill="#6A6A6A"/>
<path d="M18.2773 4.20878C18.7337 4.20878 19.1054 3.83711 19.1054 3.38063V0.828145C19.1054 0.37167 18.7337 0 18.2773 0C17.8209 0 17.4492 0.37167 17.4492 0.828145V3.38063C17.4492 3.83711 17.8209 4.20878 18.2773 4.20878Z" fill="#6A6A6A"/>
<path d="M30.7109 21.6006C31.1673 21.6006 31.539 21.229 31.539 20.7725V15.9649C31.539 15.5084 31.1673 15.1367 30.7109 15.1367C30.2544 15.1367 29.8828 15.5084 29.8828 15.9649V20.7725C29.8828 21.229 30.2544 21.6006 30.7109 21.6006Z" fill="#6A6A6A"/>
<path d="M47.0109 40.3491L43.2046 33.7554L43.1972 33.7428C43.1972 33.7428 43.193 33.7344 43.1909 33.7313L43.1805 33.7103C42.8539 33.1481 42.3273 32.745 41.696 32.5744C41.4385 32.5063 41.1747 32.4802 40.9109 32.4969L38.5408 28.3907C40.177 26.8988 41.3432 24.9787 41.919 22.8314C42.7209 19.8381 42.3095 16.7098 40.7591 14.0233L40.7109 13.9448C39.1584 11.3002 36.6763 9.40937 33.7126 8.61473C31.5645 8.0389 29.3169 8.0902 27.2074 8.7613C25.9763 7.8473 24.6269 7.13223 23.1938 6.63388C21.613 6.08318 19.9589 5.80469 18.2777 5.80469C14.2546 5.80469 10.4691 7.38664 7.61956 10.2595C4.77419 13.1282 3.20703 16.9422 3.20703 20.9992C3.20703 23.0596 3.61007 25.0583 4.40464 26.9417C5.2034 28.8315 6.35495 30.515 7.82579 31.9452C9.14065 33.2204 9.91847 34.1228 10.4262 34.9635C10.914 35.7708 11.181 36.5811 11.316 37.6668C11.3077 37.6752 11.2993 37.6825 11.292 37.6909C10.6984 38.2845 10.3707 39.0729 10.3707 39.9115C10.3707 40.7501 10.6973 41.5374 11.292 42.1321C11.6856 42.5257 12.1724 42.8063 12.7063 42.9477C12.7 43.0398 12.6968 43.1204 12.6968 43.1979C12.6968 44.3914 13.1638 45.5158 14.0117 46.3639C14.8628 47.2119 15.9882 47.6789 17.1795 47.6789H19.3779C20.5714 47.6789 21.6957 47.2119 22.5437 46.3639C23.3916 45.5158 23.8585 44.3914 23.8585 43.1979C23.8585 43.1215 23.8554 43.0398 23.8501 42.9487C24.3861 42.8074 24.8719 42.5268 25.2645 42.1321C25.8601 41.5364 26.1878 40.748 26.1878 39.9115C26.1878 39.075 25.8601 38.2876 25.2645 37.6909C25.2571 37.6835 25.2498 37.6762 25.2425 37.6689C25.3765 36.5874 25.6424 35.776 26.1302 34.9646C26.6379 34.1239 27.4158 33.2214 28.7296 31.9473C28.8468 31.8352 28.9766 31.7033 29.1389 31.5327C29.1556 31.518 29.1703 31.5033 29.185 31.4855C29.2289 31.4395 29.2708 31.3945 29.3116 31.3505C30.9688 31.5536 32.6145 31.4007 34.2089 30.8951L36.58 35.0033C36.4324 35.2253 36.3235 35.4661 36.2555 35.7205C36.088 36.3508 36.1749 37.0072 36.4994 37.5705L40.31 44.1736L40.3309 44.2103C40.6544 44.7725 41.181 45.1766 41.8133 45.3462C42.4445 45.5127 43.102 45.4279 43.6652 45.1054L46.1201 43.6858C46.6864 43.356 47.0895 42.8293 47.2549 42.2022C47.4245 41.5751 47.3376 40.9176 47.0109 40.3512V40.3491ZM22.2034 43.1947C22.2034 43.9465 21.9093 44.6552 21.3743 45.1902C20.8394 45.7252 20.1306 46.0194 19.379 46.0194H17.1806C16.4289 46.0194 15.7202 45.7252 15.1852 45.1902C14.6493 44.6563 14.354 43.9486 14.354 43.1958C14.354 43.1476 14.3551 43.1005 14.3582 43.0513H22.2003C22.2024 43.1005 22.2045 43.1476 22.2045 43.1958L22.2034 43.1947ZM12.4624 38.8614C12.745 38.5787 13.1166 38.4237 13.5113 38.4237H23.0472C23.4429 38.4237 23.8135 38.5787 24.0941 38.8624C24.3757 39.142 24.5316 39.5136 24.5316 39.9083C24.5316 40.303 24.3757 40.6758 24.0941 40.9574C23.8125 41.239 23.4419 41.3929 23.0472 41.3929H13.5113C13.1177 41.3929 12.745 41.238 12.4624 40.9584C12.1818 40.6747 12.0269 40.302 12.0269 39.9083C12.0269 39.5147 12.1818 39.142 12.4624 38.8614ZM24.7148 34.1061C24.2092 34.9437 23.8962 35.7697 23.7078 36.7675H12.8518C12.6644 35.776 12.3514 34.9499 11.8447 34.1061C11.2637 33.1471 10.4074 32.1462 8.97944 30.759C7.66248 29.4796 6.63551 27.9793 5.92783 26.2989C5.22224 24.6269 4.86422 22.8429 4.86422 20.9982C4.86422 17.3778 6.25969 13.9773 8.79414 11.4227C11.3234 8.86809 14.6922 7.46098 18.2777 7.46098C19.7799 7.46098 21.2518 7.70806 22.6504 8.19385C23.6094 8.52678 24.5296 8.97069 25.3901 9.51406C25.2393 9.59154 25.0917 9.67215 24.9462 9.75591L24.9064 9.77685C22.2212 11.3264 20.3002 13.8296 19.4983 16.8239C18.6954 19.8182 19.1089 22.9445 20.6603 25.6268C22.1521 28.2148 24.5337 30.0962 27.3875 30.9464C26.0674 32.2435 25.2624 33.1973 24.7138 34.1071L24.7148 34.1061ZM21.099 17.25C21.7878 14.6819 23.4335 12.5356 25.7355 11.206C28.0355 9.87736 30.7176 9.52453 33.2876 10.2134C35.843 10.8992 37.9807 12.5304 39.3102 14.8117L39.3312 14.8504C40.6586 17.1537 41.0114 19.836 40.3236 22.4032C39.6389 24.9578 38.0058 27.0956 35.7237 28.4263L35.6849 28.4473C33.7147 29.5832 31.3991 30.0135 29.164 29.6586C29.1389 29.6534 29.1127 29.6492 29.0949 29.6471C28.7714 29.5937 28.449 29.5235 28.1349 29.4398C25.567 28.7519 23.4209 27.1051 22.0914 24.8028C20.7629 22.5026 20.4101 19.8203 21.099 17.25ZM36.513 29.8774L36.5915 29.8293C36.8072 29.7015 37.0228 29.5654 37.2332 29.422L39.3563 33.1L37.8823 33.9522L35.7603 30.2753C36.0189 30.1507 36.2712 30.0167 36.513 29.8774ZM37.8551 36.1445C37.9095 35.9425 38.0414 35.7687 38.2215 35.665L40.6659 34.2527L40.6785 34.2443C40.8564 34.1438 41.0669 34.1187 41.272 34.1731C41.4741 34.2275 41.6479 34.3595 41.7494 34.5374L41.7567 34.549C41.763 34.5594 41.7693 34.5699 41.7756 34.5793L45.582 41.172C45.6856 41.351 45.7128 41.5625 45.6595 41.7698V41.7719C45.6019 41.9803 45.471 42.1509 45.291 42.2535L42.8874 43.6407C42.8601 43.6533 42.8329 43.668 42.8057 43.6858C42.6351 43.7748 42.4351 43.7947 42.2414 43.7423C42.0467 43.691 41.8813 43.5706 41.7787 43.4094L37.9294 36.7444C37.8258 36.5644 37.7996 36.3455 37.8551 36.1424V36.1445Z" fill="#6A6A6A"/>
<path d="M30.7109 24.519C31.1673 24.519 31.539 24.1474 31.539 23.6909V23.5391C31.539 23.0826 31.1673 22.7109 30.7109 22.7109C30.2544 22.7109 29.8828 23.0826 29.8828 23.5391V23.6909C29.8828 24.1474 30.2544 24.519 30.7109 24.519Z" fill="#6A6A6A"/>
<path d="M24.0587 23.7754C25.0962 25.5248 26.7429 26.7749 28.7058 27.3005C29.3716 27.4795 30.0478 27.5685 30.7189 27.5685C32.0589 27.5685 33.3821 27.2167 34.5745 26.5268C36.3636 25.4955 37.6439 23.8277 38.1778 21.8301C38.7138 19.8388 38.4385 17.7543 37.4041 15.9598L37.111 15.4542V15.4929C36.0694 13.9476 34.5242 12.843 32.7079 12.3562C30.7147 11.8222 28.6293 12.0966 26.8382 13.1299C25.048 14.1643 23.7687 15.8321 23.2348 17.8266C22.7009 19.8231 22.9763 21.9076 24.0085 23.6969L24.0566 23.7754H24.0587ZM24.8365 18.2558C25.2563 16.6843 26.2624 15.3725 27.6683 14.56C29.0774 13.7487 30.7168 13.534 32.2829 13.956C33.8406 14.3726 35.1429 15.3641 35.9542 16.7492L35.9752 16.788C36.7865 18.193 37.0022 19.8325 36.5813 21.403C36.1615 22.9713 35.1544 24.2832 33.7464 25.0966C32.3436 25.908 30.7042 26.1237 29.1318 25.7028C27.5772 25.2861 26.2749 24.2936 25.4594 22.9064L25.4385 22.8677C24.6272 21.4606 24.4126 19.8221 24.8345 18.2548L24.8365 18.2558Z" fill="#6A6A6A"/>
</g>
<defs>
<clipPath id="clip0_2132_12752">
<rect width="47.3381" height="47.6775" fill="white"/>
</clipPath>
</defs>
</svg>
