<svg width="41" height="45" viewBox="0 0 41 45" fill="none" xmlns="http://www.w3.org/2000/svg">
<g clip-path="url(#clip0_2132_12737)">
<path d="M34.9851 5.98139V0H10.8513L0 10.8087V39.6802H5.25231V44.9318H40.2374V5.98139H34.9851ZM10.9302 2.44181V10.8861H2.4533L10.9302 2.44181ZM1.7912 37.8989V12.6675H12.7204V1.78034H33.1939V37.8989H1.7912ZM38.4462 43.1514H7.04352V39.6802H34.9851V7.76273H38.4462V43.1514Z" fill="#6A6A6A"/>
<path d="M28.576 12.9453H16.7734V14.7267H28.576V12.9453Z" fill="#6A6A6A"/>
<path d="M28.576 6.85547H16.7734V8.63682H28.576V6.85547Z" fill="#6A6A6A"/>
<path d="M28.5753 19.0391H6.51172V20.8204H28.5753V19.0391Z" fill="#6A6A6A"/>
<path d="M28.5753 25.1328H6.51172V26.9132H28.5753V25.1328Z" fill="#6A6A6A"/>
<path d="M28.5753 31.2227H6.51172V33.004H28.5753V31.2227Z" fill="#6A6A6A"/>
</g>
<defs>
<clipPath id="clip0_2132_12737">
<rect width="40.2374" height="44.9318" fill="white"/>
</clipPath>
</defs>
</svg>
