<svg width="179" height="44" viewBox="0 0 179 44" fill="none" xmlns="http://www.w3.org/2000/svg">
<rect width="179" height="44" rx="22" fill="#D3DBFF"/>
<path d="M30.8157 33.2983C29.7717 33.2912 28.7525 33.1101 27.7582 32.755C26.7638 32.3928 25.869 31.8068 25.0735 30.9972C24.2781 30.1804 23.646 29.0973 23.1772 27.7479C22.7085 26.3913 22.4776 24.7116 22.4847 22.7088C22.4847 20.8409 22.6836 19.1754 23.0813 17.7124C23.479 16.2493 24.0508 15.0135 24.7965 14.005C25.5423 12.9893 26.4407 12.2152 27.4918 11.6825C28.5501 11.1499 29.7326 10.8835 31.0394 10.8835C32.4102 10.8835 33.6246 11.1534 34.6829 11.6932C35.7482 12.233 36.6076 12.9716 37.261 13.9091C37.9144 14.8395 38.3192 15.8906 38.4755 17.0625H34.587C34.3881 16.2244 33.9798 15.5568 33.3619 15.0597C32.7511 14.5554 31.9769 14.3033 31.0394 14.3033C29.5266 14.3033 28.3619 14.9602 27.5451 16.2741C26.7354 17.5881 26.3271 19.392 26.32 21.6861H26.4691C26.8171 21.0611 27.2681 20.5249 27.8221 20.0774C28.3761 19.63 29.0011 19.2855 29.6971 19.044C30.4002 18.7955 31.1424 18.6712 31.9237 18.6712C33.2021 18.6712 34.3491 18.9766 35.3647 19.5874C36.3874 20.1982 37.1971 21.0398 37.7937 22.1122C38.3903 23.1776 38.685 24.3991 38.6779 25.777C38.685 27.2116 38.3583 28.5007 37.6978 29.6442C37.0373 30.7805 36.1175 31.6754 34.9386 32.3288C33.7596 32.9822 32.3853 33.3054 30.8157 33.2983ZM30.7944 30.1023C31.5685 30.1023 32.261 29.9141 32.8718 29.5376C33.4826 29.1612 33.9656 28.6534 34.3207 28.0142C34.6758 27.375 34.8498 26.6577 34.8427 25.8622C34.8498 25.081 34.6793 24.3743 34.3313 23.7422C33.9904 23.1101 33.5181 22.6094 32.9144 22.2401C32.3107 21.8707 31.6218 21.6861 30.8477 21.6861C30.2724 21.6861 29.7362 21.7962 29.239 22.0163C28.7418 22.2365 28.3086 22.5419 27.9393 22.9325C27.57 23.3161 27.2788 23.7635 27.0657 24.2749C26.8597 24.7791 26.7532 25.3189 26.7461 25.8942C26.7532 26.6541 26.9308 27.3537 27.2788 27.9929C27.6268 28.6321 28.1062 29.1435 28.717 29.527C29.3278 29.9105 30.0202 30.1023 30.7944 30.1023ZM49.9332 11.1818H54.7699L61.2472 26.9915H61.5028L67.9801 11.1818H72.8168V33H69.0241V18.0107H68.8217L62.7919 32.9361H59.9581L53.9283 17.9787H53.7259V33H49.9332V11.1818ZM84.0881 33.3196C82.4901 33.3196 81.1051 32.968 79.9332 32.2649C78.7614 31.5618 77.8523 30.5781 77.206 29.3139C76.5668 28.0497 76.2472 26.5724 76.2472 24.8821C76.2472 23.1918 76.5668 21.7109 77.206 20.4396C77.8523 19.1683 78.7614 18.1811 79.9332 17.478C81.1051 16.7749 82.4901 16.4233 84.0881 16.4233C85.6861 16.4233 87.071 16.7749 88.2429 17.478C89.4148 18.1811 90.3203 19.1683 90.9595 20.4396C91.6058 21.7109 91.929 23.1918 91.929 24.8821C91.929 26.5724 91.6058 28.0497 90.9595 29.3139C90.3203 30.5781 89.4148 31.5618 88.2429 32.2649C87.071 32.968 85.6861 33.3196 84.0881 33.3196ZM84.1094 30.2301C84.9759 30.2301 85.7003 29.9922 86.2827 29.5163C86.8651 29.0334 87.2983 28.3871 87.5824 27.5774C87.8736 26.7678 88.0192 25.8658 88.0192 24.8714C88.0192 23.87 87.8736 22.9645 87.5824 22.1548C87.2983 21.3381 86.8651 20.6882 86.2827 20.2053C85.7003 19.7223 84.9759 19.4808 84.1094 19.4808C83.2216 19.4808 82.483 19.7223 81.8935 20.2053C81.3111 20.6882 80.8743 21.3381 80.5831 22.1548C80.299 22.9645 80.157 23.87 80.157 24.8714C80.157 25.8658 80.299 26.7678 80.5831 27.5774C80.8743 28.3871 81.3111 29.0334 81.8935 29.5163C82.483 29.9922 83.2216 30.2301 84.1094 30.2301ZM99.0588 23.4119V33H95.2022V16.6364H98.8883V19.4169H99.0801C99.4565 18.5007 100.057 17.7727 100.881 17.233C101.711 16.6932 102.738 16.4233 103.959 16.4233C105.089 16.4233 106.072 16.6648 106.91 17.1477C107.756 17.6307 108.409 18.3303 108.871 19.2464C109.339 20.1626 109.57 21.2741 109.563 22.581V33H105.706V23.1776C105.706 22.0838 105.422 21.228 104.854 20.6101C104.293 19.9922 103.515 19.6832 102.521 19.6832C101.846 19.6832 101.246 19.8324 100.721 20.1307C100.202 20.4219 99.7939 20.8445 99.4956 21.3984C99.2044 21.9524 99.0588 22.6236 99.0588 23.4119ZM121.655 16.6364V19.6193H112.248V16.6364H121.655ZM114.57 12.7159H118.427V28.0781C118.427 28.5966 118.505 28.9943 118.661 29.2713C118.824 29.5412 119.037 29.7259 119.3 29.8253C119.563 29.9247 119.854 29.9744 120.174 29.9744C120.415 29.9744 120.635 29.9567 120.834 29.9212C121.04 29.8857 121.197 29.8537 121.303 29.8253L121.953 32.8402C121.747 32.9112 121.452 32.9893 121.069 33.0746C120.692 33.1598 120.231 33.2095 119.684 33.2237C118.718 33.2521 117.848 33.1065 117.074 32.7869C116.3 32.4602 115.685 31.956 115.231 31.2741C114.783 30.5923 114.563 29.7401 114.57 28.7173V12.7159ZM129.088 23.4119V33H125.232V11.1818H129.003V19.4169H129.195C129.578 18.4936 130.171 17.7656 130.974 17.233C131.783 16.6932 132.813 16.4233 134.063 16.4233C135.2 16.4233 136.19 16.6612 137.036 17.1371C137.881 17.6129 138.534 18.3089 138.996 19.2251C139.464 20.1413 139.699 21.2599 139.699 22.581V33H135.842V23.1776C135.842 22.0767 135.558 21.2209 134.99 20.6101C134.429 19.9922 133.641 19.6832 132.625 19.6832C131.943 19.6832 131.332 19.8324 130.793 20.1307C130.26 20.4219 129.841 20.8445 129.536 21.3984C129.237 21.9524 129.088 22.6236 129.088 23.4119ZM156.563 20.9616L153.048 21.3452C152.948 20.9901 152.774 20.6562 152.526 20.3438C152.284 20.0312 151.957 19.7791 151.545 19.5874C151.134 19.3956 150.629 19.2997 150.033 19.2997C149.23 19.2997 148.555 19.4737 148.009 19.8217C147.469 20.1697 147.202 20.6207 147.21 21.1747C147.202 21.6506 147.376 22.0376 147.732 22.3359C148.094 22.6342 148.69 22.8793 149.521 23.071L152.312 23.6676C153.861 24.0014 155.011 24.5305 155.764 25.255C156.524 25.9794 156.908 26.9276 156.915 28.0994C156.908 29.1293 156.606 30.0384 156.009 30.8267C155.42 31.608 154.599 32.2187 153.548 32.6591C152.497 33.0994 151.29 33.3196 149.926 33.3196C147.923 33.3196 146.311 32.9006 145.089 32.0625C143.868 31.2173 143.14 30.0419 142.906 28.5362L146.666 28.174C146.837 28.9126 147.199 29.4702 147.753 29.8466C148.307 30.223 149.028 30.4112 149.915 30.4112C150.832 30.4112 151.567 30.223 152.121 29.8466C152.682 29.4702 152.962 29.005 152.962 28.451C152.962 27.9822 152.781 27.5952 152.419 27.2898C152.064 26.9844 151.51 26.75 150.757 26.5866L147.966 26.0007C146.396 25.674 145.235 25.1236 144.482 24.3494C143.729 23.5682 143.357 22.581 143.364 21.3878C143.357 20.3793 143.63 19.5057 144.184 18.767C144.745 18.0213 145.523 17.446 146.517 17.0412C147.518 16.6293 148.673 16.4233 149.979 16.4233C151.897 16.4233 153.406 16.8317 154.507 17.6484C155.615 18.4652 156.3 19.5696 156.563 20.9616Z" fill="black"/>
</svg>
