<svg width="177" height="64" viewBox="0 0 177 64" fill="none" xmlns="http://www.w3.org/2000/svg">
<rect y="14" width="177" height="35" rx="17.5" fill="#DDF444"/>
<path d="M25.2912 38V24.9091H30.2003C31.206 24.9091 32.0497 25.0966 32.7315 25.4716C33.4176 25.8466 33.9354 26.3622 34.2848 27.0185C34.6385 27.6705 34.8153 28.4119 34.8153 29.2429C34.8153 30.0824 34.6385 30.8281 34.2848 31.4801C33.9311 32.1321 33.4091 32.6456 32.7188 33.0206C32.0284 33.3913 31.1783 33.5767 30.1683 33.5767H26.9148V31.6271H29.8487C30.4368 31.6271 30.9183 31.5249 31.2933 31.3203C31.6683 31.1158 31.9453 30.8345 32.1243 30.4766C32.3075 30.1186 32.3991 29.7074 32.3991 29.2429C32.3991 28.7784 32.3075 28.3693 32.1243 28.0156C31.9453 27.6619 31.6662 27.3871 31.2869 27.1911C30.9119 26.9908 30.4283 26.8906 29.8359 26.8906H27.6626V38H25.2912ZM35.9752 38V24.9091H40.8843C41.89 24.9091 42.7337 25.0838 43.4155 25.4332C44.1016 25.7827 44.6194 26.2727 44.9688 26.9034C45.3225 27.5298 45.4993 28.2607 45.4993 29.0959C45.4993 29.9354 45.3203 30.6641 44.9624 31.282C44.6087 31.8956 44.0867 32.3707 43.3963 32.7074C42.706 33.0398 41.858 33.206 40.8523 33.206H37.3559V31.2372H40.5327C41.1208 31.2372 41.6023 31.1562 41.9773 30.9943C42.3523 30.8281 42.6293 30.5874 42.8083 30.272C42.9915 29.9524 43.0831 29.5604 43.0831 29.0959C43.0831 28.6314 42.9915 28.2351 42.8083 27.907C42.625 27.5746 42.3459 27.3232 41.9709 27.1527C41.5959 26.978 41.1123 26.8906 40.5199 26.8906H38.3466V38H35.9752ZM42.738 32.0682L45.9787 38H43.3324L40.1492 32.0682H42.738ZM58.4797 31.4545C58.4797 32.8651 58.2154 34.0732 57.687 35.0788C57.1629 36.0803 56.447 36.8473 55.5393 37.38C54.6359 37.9126 53.611 38.179 52.4647 38.179C51.3184 38.179 50.2914 37.9126 49.3838 37.38C48.4804 36.843 47.7645 36.0739 47.236 35.0724C46.7119 34.0668 46.4498 32.8608 46.4498 31.4545C46.4498 30.044 46.7119 28.8381 47.236 27.8366C47.7645 26.831 48.4804 26.0618 49.3838 25.5291C50.2914 24.9964 51.3184 24.7301 52.4647 24.7301C53.611 24.7301 54.6359 24.9964 55.5393 25.5291C56.447 26.0618 57.1629 26.831 57.687 27.8366C58.2154 28.8381 58.4797 30.044 58.4797 31.4545ZM56.0954 31.4545C56.0954 30.4616 55.9399 29.6243 55.6288 28.9425C55.322 28.2564 54.8958 27.7386 54.3504 27.3892C53.8049 27.0355 53.1764 26.8587 52.4647 26.8587C51.7531 26.8587 51.1245 27.0355 50.5791 27.3892C50.0336 27.7386 49.6054 28.2564 49.2943 28.9425C48.9875 29.6243 48.8341 30.4616 48.8341 31.4545C48.8341 32.4474 48.9875 33.2869 49.2943 33.973C49.6054 34.6548 50.0336 35.1726 50.5791 35.5263C51.1245 35.8757 51.7531 36.0504 52.4647 36.0504C53.1764 36.0504 53.8049 35.8757 54.3504 35.5263C54.8958 35.1726 55.322 34.6548 55.6288 33.973C55.9399 33.2869 56.0954 32.4474 56.0954 31.4545ZM64.9864 24.9091H67.3387V34.1136C67.3344 34.9574 67.1555 35.6839 66.8018 36.2933C66.4481 36.8984 65.9538 37.3651 65.3188 37.6932C64.6881 38.017 63.9531 38.179 63.1136 38.179C62.3465 38.179 61.6562 38.0426 61.0425 37.7699C60.4332 37.4929 59.9495 37.0838 59.5915 36.5426C59.2336 36.0014 59.0546 35.3281 59.0546 34.5227H61.4133C61.4175 34.8764 61.4942 35.1811 61.6434 35.4368C61.7968 35.6925 62.0077 35.8885 62.2762 36.0249C62.5447 36.1612 62.8536 36.2294 63.2031 36.2294C63.5823 36.2294 63.904 36.1506 64.1683 35.9929C64.4325 35.831 64.6327 35.5923 64.7691 35.277C64.9097 34.9616 64.9822 34.5739 64.9864 34.1136V24.9091ZM69.0115 38V24.9091H77.5257V26.897H71.383V30.451H77.0847V32.4389H71.383V36.0121H77.5768V38H69.0115ZM90.2504 29.326H87.8597C87.7915 28.9339 87.6658 28.5866 87.4826 28.2841C87.2994 27.9773 87.0714 27.7173 86.7987 27.5043C86.5259 27.2912 86.2148 27.1314 85.8654 27.0249C85.5202 26.9141 85.1474 26.8587 84.7468 26.8587C84.0352 26.8587 83.4045 27.0376 82.8548 27.3956C82.305 27.7493 81.8746 28.2692 81.5636 28.9553C81.2525 29.6371 81.0969 30.4702 81.0969 31.4545C81.0969 32.456 81.2525 33.2997 81.5636 33.9858C81.8789 34.6676 82.3093 35.1832 82.8548 35.5327C83.4045 35.8778 84.033 36.0504 84.7404 36.0504C85.1325 36.0504 85.4989 35.9993 85.8398 35.897C86.185 35.7905 86.494 35.6349 86.7667 35.4304C87.0437 35.2259 87.2759 34.9744 87.4634 34.6761C87.6552 34.3778 87.7873 34.0369 87.8597 33.6534L90.2504 33.6662C90.1609 34.2884 89.967 34.8722 89.6687 35.4176C89.3746 35.9631 88.989 36.4446 88.5117 36.8622C88.0344 37.2756 87.4762 37.5994 86.837 37.8338C86.1978 38.0639 85.4883 38.179 84.7085 38.179C83.5579 38.179 82.5309 37.9126 81.6275 37.38C80.7241 36.8473 80.0124 36.0781 79.4925 35.0724C78.9727 34.0668 78.7127 32.8608 78.7127 31.4545C78.7127 30.044 78.9748 28.8381 79.4989 27.8366C80.0231 26.831 80.7369 26.0618 81.6403 25.5291C82.5437 24.9964 83.5664 24.7301 84.7085 24.7301C85.4371 24.7301 86.1147 24.8324 86.7411 25.0369C87.3675 25.2415 87.9258 25.5419 88.4158 25.9382C88.9059 26.3303 89.3086 26.8118 89.6239 27.3828C89.9435 27.9496 90.1523 28.5973 90.2504 29.326ZM90.9468 26.897V24.9091H101.391V26.897H97.3452V38H94.9929V26.897H90.9468ZM114.84 29.0895C114.733 28.7443 114.586 28.4354 114.399 28.1626C114.215 27.8857 113.994 27.6491 113.734 27.4531C113.478 27.2571 113.184 27.1101 112.852 27.0121C112.519 26.9098 112.157 26.8587 111.765 26.8587C111.062 26.8587 110.435 27.0355 109.886 27.3892C109.336 27.7429 108.904 28.2628 108.588 28.9489C108.277 29.6307 108.122 30.4616 108.122 31.4418C108.122 32.4304 108.277 33.2678 108.588 33.9538C108.899 34.6399 109.332 35.1619 109.886 35.5199C110.44 35.8736 111.083 36.0504 111.816 36.0504C112.481 36.0504 113.056 35.9226 113.542 35.6669C114.032 35.4112 114.409 35.049 114.673 34.5803C114.938 34.1072 115.07 33.5533 115.07 32.9183L115.607 33.0014H112.053V31.1477H117.364V32.7202C117.364 33.8409 117.126 34.8104 116.649 35.6286C116.171 36.4467 115.515 37.0774 114.68 37.5206C113.845 37.9595 112.886 38.179 111.803 38.179C110.597 38.179 109.538 37.9084 108.627 37.3672C107.719 36.8217 107.009 36.0483 106.498 35.0469C105.991 34.0412 105.737 32.848 105.737 31.4673C105.737 30.4105 105.886 29.4666 106.185 28.6357C106.487 27.8047 106.909 27.0994 107.45 26.5199C107.992 25.9361 108.627 25.4929 109.355 25.1903C110.084 24.8835 110.877 24.7301 111.733 24.7301C112.457 24.7301 113.133 24.8366 113.759 25.0497C114.386 25.2585 114.942 25.5568 115.428 25.9446C115.918 26.3324 116.32 26.7926 116.636 27.3253C116.951 27.858 117.158 28.446 117.256 29.0895H114.84ZM130.455 31.4545C130.455 32.8651 130.191 34.0732 129.662 35.0788C129.138 36.0803 128.422 36.8473 127.515 37.38C126.611 37.9126 125.586 38.179 124.44 38.179C123.294 38.179 122.267 37.9126 121.359 37.38C120.456 36.843 119.74 36.0739 119.211 35.0724C118.687 34.0668 118.425 32.8608 118.425 31.4545C118.425 30.044 118.687 28.8381 119.211 27.8366C119.74 26.831 120.456 26.0618 121.359 25.5291C122.267 24.9964 123.294 24.7301 124.44 24.7301C125.586 24.7301 126.611 24.9964 127.515 25.5291C128.422 26.0618 129.138 26.831 129.662 27.8366C130.191 28.8381 130.455 30.044 130.455 31.4545ZM128.071 31.4545C128.071 30.4616 127.915 29.6243 127.604 28.9425C127.297 28.2564 126.871 27.7386 126.326 27.3892C125.78 27.0355 125.152 26.8587 124.44 26.8587C123.728 26.8587 123.1 27.0355 122.554 27.3892C122.009 27.7386 121.581 28.2564 121.27 28.9425C120.963 29.6243 120.809 30.4616 120.809 31.4545C120.809 32.4474 120.963 33.2869 121.27 33.973C121.581 34.6548 122.009 35.1726 122.554 35.5263C123.1 35.8757 123.728 36.0504 124.44 36.0504C125.152 36.0504 125.78 35.8757 126.326 35.5263C126.871 35.1726 127.297 34.6548 127.604 33.973C127.915 33.2869 128.071 32.4474 128.071 31.4545ZM132.775 38H130.244L134.852 24.9091H137.78L142.395 38H139.864L136.367 27.5938H136.265L132.775 38ZM132.858 32.8672H139.762V34.772H132.858V32.8672ZM143.219 38V24.9091H145.591V36.0121H151.356V38H143.219Z" fill="#232326"/>
</svg>
