<svg width="20" height="20" viewBox="0 0 20 20" fill="none" xmlns="http://www.w3.org/2000/svg">
<path d="M0 4C0 1.79086 1.79086 0 4 0H16C18.2091 0 20 1.79086 20 4V16C20 18.2091 18.2091 20 16 20H4C1.79086 20 0 18.2091 0 16V4Z" fill="#272A2B" fill-opacity="0.05"/>
<path d="M4 0.5H16C17.933 0.5 19.5 2.067 19.5 4V16C19.5 17.933 17.933 19.5 16 19.5H4C2.067 19.5 0.5 17.933 0.5 16V4C0.5 2.067 2.067 0.5 4 0.5Z" stroke="#24221F" stroke-opacity="0.1"/>
<path d="M5.25 8.68124C5.25 11.962 7.97861 14.6751 9.18636 15.7153C9.35921 15.8642 9.44667 15.9395 9.57562 15.9777C9.67604 16.0074 9.82382 16.0074 9.92424 15.9777C10.0534 15.9394 10.1403 15.8648 10.3138 15.7154C11.5215 14.6752 14.25 11.9623 14.25 8.68154C14.25 7.43995 13.7759 6.24908 12.932 5.37115C12.0881 4.49322 10.9436 4 9.75008 4C8.5566 4 7.41195 4.49329 6.56803 5.37122C5.72411 6.24915 5.25 7.43965 5.25 8.68124Z" stroke="#898885" stroke-linecap="round" stroke-linejoin="round"/>
<path d="M8.4643 8.0572C8.4643 8.80411 9.03994 9.4096 9.75003 9.4096C10.4601 9.4096 11.0357 8.80411 11.0357 8.0572C11.0357 7.31029 10.4601 6.7048 9.75003 6.7048C9.03994 6.7048 8.4643 7.31029 8.4643 8.0572Z" stroke="#898885" stroke-linecap="round" stroke-linejoin="round"/>
</svg>
