<svg width="20" height="20" viewBox="0 0 20 20" fill="none" xmlns="http://www.w3.org/2000/svg">
<path d="M0 4C0 1.79086 1.79086 0 4 0H16C18.2091 0 20 1.79086 20 4V16C20 18.2091 18.2091 20 16 20H4C1.79086 20 0 18.2091 0 16V4Z" fill="#272A2B" fill-opacity="0.05"/>
<path d="M4 0.5H16C17.933 0.5 19.5 2.067 19.5 4V16C19.5 17.933 17.933 19.5 16 19.5H4C2.067 19.5 0.5 17.933 0.5 16V4C0.5 2.067 2.067 0.5 4 0.5Z" stroke="#24221F" stroke-opacity="0.1"/>
<path d="M9.99967 3.33398C13.6817 3.33398 16.6663 6.31866 16.6663 10.0007C16.6663 13.6826 13.6817 16.6673 9.99967 16.6673C6.31768 16.6673 3.33301 13.6826 3.33301 10.0007C3.33301 6.31866 6.31768 3.33398 9.99967 3.33398ZM4.85311 12.5352C5.64686 14.1439 7.17208 15.3253 8.99495 15.6475C8.81125 15.3761 8.60398 15.0463 8.39842 14.6633C8.08211 14.0739 7.76395 13.3558 7.52814 12.5352H4.85311ZM12.4712 12.5352C12.2354 13.3558 11.9172 14.0739 11.6009 14.6633C11.3953 15.0465 11.1875 15.376 11.0038 15.6475C12.8269 15.3255 14.3524 14.1441 15.1462 12.5352H12.4712ZM8.50016 12.5352C8.70393 13.1744 8.96032 13.7427 9.21842 14.2236C9.50322 14.7543 9.78748 15.1743 9.99967 15.4603C10.2119 15.1743 10.4961 14.7543 10.7809 14.2236C11.039 13.7427 11.2954 13.1744 11.4992 12.5352H8.50016ZM12.6886 8.23042C12.7881 8.75826 12.8473 9.32209 12.8473 9.91768C12.8473 10.5095 12.7887 11.0737 12.6904 11.6049H15.5072C15.6553 11.0957 15.7361 10.5577 15.7361 10.0007C15.7361 9.38274 15.6371 8.78808 15.4563 8.23042H12.6886ZM4.54304 8.23042C4.36226 8.78808 4.26324 9.38274 4.26324 10.0007C4.26324 10.5577 4.34409 11.0957 4.49216 11.6049H7.3089C7.2106 11.0737 7.15205 10.5095 7.15205 9.91768C7.15205 9.32209 7.21121 8.75826 7.31072 8.23042H4.54304ZM8.26033 8.23042C8.15005 8.75475 8.08229 9.31882 8.08228 9.91768C8.08228 10.5115 8.14861 11.0761 8.25731 11.6049H11.742C11.8507 11.0761 11.9171 10.5115 11.9171 9.91768C11.9171 9.31882 11.8493 8.75475 11.739 8.23042H8.26033ZM11.0389 4.3593C11.2129 4.60789 11.4059 4.90503 11.5973 5.24835C11.9121 5.81295 12.2276 6.50368 12.4633 7.30019H15.0614C14.252 5.78615 12.7835 4.6786 11.0389 4.3593ZM8.95983 4.3593C7.21549 4.67874 5.74722 5.78632 4.9379 7.30019H7.53601C7.77171 6.50368 8.08729 5.81295 8.40205 5.24835C8.59337 4.90516 8.78585 4.60784 8.95983 4.3593ZM9.99362 4.52282C9.78249 4.79255 9.49895 5.19165 9.21479 5.70135C8.96258 6.15375 8.71184 6.69078 8.51046 7.30019H11.4889C11.2875 6.69078 11.0368 6.15375 10.7846 5.70135C10.5004 5.19165 10.2169 4.79255 10.0057 4.52282C10.0037 4.5202 10.0017 4.51754 9.99967 4.51494C9.99764 4.51754 9.99567 4.5202 9.99362 4.52282Z" fill="#171510" fill-opacity="0.46"/>
</svg>
