<svg width="20" height="20" viewBox="0 0 20 20" fill="none" xmlns="http://www.w3.org/2000/svg">
<path d="M0 4C0 1.79086 1.79086 0 4 0H16C18.2091 0 20 1.79086 20 4V16C20 18.2091 18.2091 20 16 20H4C1.79086 20 0 18.2091 0 16V4Z" fill="#272A2B" fill-opacity="0.05"/>
<path d="M4 0.5H16C17.933 0.5 19.5 2.067 19.5 4V16C19.5 17.933 17.933 19.5 16 19.5H4C2.067 19.5 0.5 17.933 0.5 16V4C0.5 2.067 2.067 0.5 4 0.5Z" stroke="#24221F" stroke-opacity="0.1"/>
<path d="M14.8333 6.81209C14.8333 6.23826 14.8252 6.08362 14.7786 5.96118C14.7304 5.83482 14.6522 5.72181 14.5507 5.6324C14.4524 5.54588 14.3104 5.48417 13.7734 5.28279L10.1992 3.9423C10.1262 3.91494 10.0853 3.89983 10.054 3.88957C10.0351 3.88339 10.0266 3.88163 10.024 3.8811C10.0082 3.87882 9.99166 3.87882 9.97585 3.8811C9.9733 3.88163 9.96473 3.88339 9.9459 3.88957C9.91459 3.89983 9.87369 3.91494 9.80072 3.9423L6.2265 5.28279C5.6895 5.48417 5.54744 5.54588 5.44915 5.6324C5.3477 5.72181 5.26943 5.83482 5.22129 5.96118C5.1747 6.08362 5.1666 6.23826 5.1666 6.81209V10.0002C5.1666 11.4502 5.95977 12.7451 6.97454 13.8023C7.9837 14.8536 9.15612 15.6111 9.78639 15.9788C9.8658 16.0251 9.90347 16.0465 9.93288 16.0608C9.95277 16.0705 9.95896 16.0719 9.96478 16.0732C9.96191 16.0726 9.9642 16.0731 9.97194 16.0738C9.97949 16.0745 9.98927 16.0751 9.99994 16.0751C10.0106 16.0751 10.0204 16.0745 10.0279 16.0738C10.0357 16.0731 10.038 16.0726 10.0351 16.0732C10.0409 16.0719 10.0471 16.0705 10.067 16.0608C10.0964 16.0465 10.1341 16.0251 10.2135 15.9788C10.8438 15.6111 12.0162 14.8536 13.0253 13.8023C14.0401 12.7451 14.8333 11.4502 14.8333 10.0002V6.81209ZM11.9798 7.64673C12.175 7.45162 12.4916 7.45162 12.6868 7.64673C12.882 7.84195 12.8819 8.15849 12.6868 8.35376L9.68678 11.3538C9.49152 11.549 9.17501 11.549 8.97975 11.3538L7.64642 10.0204C7.45128 9.82515 7.4512 9.50862 7.64642 9.31339C7.84165 9.11829 8.15822 9.11829 8.35345 9.31339L9.33327 10.2932L11.9798 7.64673ZM15.8333 10.0002C15.8333 11.8226 14.8412 13.3541 13.7467 14.4944C12.6467 15.6403 11.3858 16.4521 10.7174 16.842C10.5856 16.9189 10.4413 17.0089 10.2447 17.051C10.0948 17.0832 9.90508 17.0832 9.75514 17.051C9.5586 17.0089 9.41428 16.9189 9.28249 16.842C8.61404 16.4521 7.35318 15.6403 6.25319 14.4944C5.15864 13.3541 4.1666 11.8226 4.1666 10.0002V6.81209C4.1666 6.32007 4.15865 5.9414 4.28639 5.60571C4.39227 5.32749 4.56437 5.07924 4.7877 4.8824C5.05718 4.64491 5.41483 4.51938 5.87559 4.3466L9.4498 3.0061C9.56831 2.96166 9.69612 2.91068 9.83327 2.89087C9.94378 2.87492 10.0561 2.87492 10.1666 2.89087C10.3037 2.91068 10.4316 2.96166 10.5501 3.0061L14.1243 4.3466C14.585 4.51938 14.9427 4.64491 15.2122 4.8824C15.4355 5.07924 15.6076 5.32749 15.7135 5.60571C15.8412 5.9414 15.8333 6.32007 15.8333 6.81209V10.0002Z" fill="#171510" fill-opacity="0.46"/>
</svg>
