<svg width="20" height="20" viewBox="0 0 20 20" fill="none" xmlns="http://www.w3.org/2000/svg">
<path d="M0 4C0 1.79086 1.79086 0 4 0H16C18.2091 0 20 1.79086 20 4V16C20 18.2091 18.2091 20 16 20H4C1.79086 20 0 18.2091 0 16V4Z" fill="#272A2B" fill-opacity="0.05"/>
<path d="M4 0.5H16C17.933 0.5 19.5 2.067 19.5 4V16C19.5 17.933 17.933 19.5 16 19.5H4C2.067 19.5 0.5 17.933 0.5 16V4C0.5 2.067 2.067 0.5 4 0.5Z" stroke="#24221F" stroke-opacity="0.1"/>
<path d="M15.5001 8C15.5001 6.067 13.9331 4.5 12.0001 4.5C10.0671 4.5 8.50006 6.067 8.50006 8C8.50006 8.16009 8.51062 8.31743 8.53131 8.47135C8.55022 8.612 8.56637 8.73152 8.57558 8.82682C8.58431 8.91725 8.5917 9.02662 8.57623 9.13477C8.55389 9.29082 8.51644 9.40077 8.43951 9.53841C8.35186 9.69522 8.207 9.83342 8.07297 9.96745L4.66607 13.3743C4.60534 13.4351 4.57145 13.4692 4.54693 13.4961C4.53228 13.5122 4.52648 13.5198 4.5248 13.5221C4.5157 13.537 4.5087 13.5534 4.50461 13.5703C4.50423 13.5723 4.50308 13.5815 4.50201 13.6048C4.50035 13.6412 4.50006 13.6895 4.50006 13.7754V14.9336C4.50006 15.1284 4.50019 15.2447 4.50722 15.3307C4.51377 15.4108 4.52385 15.4198 4.51829 15.4089C4.53426 15.4402 4.55984 15.4658 4.5912 15.4818C4.58028 15.4762 4.58929 15.4863 4.66933 15.4928C4.75537 15.4999 4.87169 15.5 5.06646 15.5H6.16672V14.6667C6.16672 14.3905 6.39058 14.1667 6.66672 14.1667H7.50006V13.3333C7.50006 13.0572 7.72391 12.8333 8.00006 12.8333H9.12636L10.0326 11.9271C10.1666 11.7931 10.3048 11.6482 10.4616 11.5605C10.5993 11.4836 10.7092 11.4462 10.8653 11.4238C10.9734 11.4084 11.0828 11.4157 11.1732 11.4245C11.2685 11.4337 11.3881 11.4498 11.5287 11.4688C11.6826 11.4894 11.84 11.5 12.0001 11.5C13.9331 11.5 15.5001 9.933 15.5001 8ZM12.8334 8C12.8334 7.78597 12.7521 7.57362 12.5892 7.41081C12.4264 7.24799 12.2141 7.16667 12.0001 7.16667C11.7239 7.16667 11.5001 6.94281 11.5001 6.66667C11.5001 6.39052 11.7239 6.16667 12.0001 6.16667C12.4685 6.16667 12.9384 6.34589 13.2963 6.70378C13.6542 7.06165 13.8334 7.5316 13.8334 8C13.8334 8.27612 13.6095 8.49999 13.3334 8.5C13.0573 8.5 12.8334 8.27613 12.8334 8ZM16.5001 8C16.5001 10.4853 14.4853 12.5 12.0001 12.5C11.7953 12.5 11.5932 12.4863 11.3952 12.4596C11.2467 12.4397 11.1491 12.4269 11.0769 12.4199C10.9997 12.4125 10.9906 12.4164 11.0072 12.4141C10.9884 12.4167 10.9796 12.4185 10.9766 12.4193C10.9735 12.4207 10.9652 12.4247 10.9493 12.4336C10.9444 12.4372 10.9325 12.4464 10.9115 12.4655C10.8723 12.5012 10.8224 12.5513 10.7396 12.6341L9.68691 13.6868C9.59314 13.7806 9.466 13.8333 9.33339 13.8333H8.50006V14.6667C8.50006 14.9428 8.2762 15.1667 8.00006 15.1667H7.16672V16C7.16672 16.2761 6.94287 16.5 6.66672 16.5H5.06646C4.88813 16.5 4.72413 16.5001 4.58795 16.4889C4.44592 16.4773 4.29023 16.4512 4.13678 16.373C3.91737 16.2612 3.73884 16.0827 3.62701 15.8633C3.54882 15.7098 3.52274 15.5541 3.51112 15.4121C3.5 15.2759 3.50006 15.1119 3.50006 14.9336V13.7754C3.50006 13.6361 3.49717 13.4849 3.53261 13.3372C3.56118 13.2182 3.608 13.1044 3.67193 13C3.75127 12.8705 3.86057 12.7658 3.95904 12.6673L7.36594 9.26042C7.44872 9.17764 7.49886 9.12774 7.53456 9.08854C7.55368 9.06755 7.56281 9.05565 7.56646 9.05078C7.57538 9.03484 7.57941 9.02655 7.58079 9.02344C7.58152 9.02044 7.58331 9.01162 7.58599 8.99284C7.58362 9.00942 7.58758 9.00033 7.58013 8.92318C7.57316 8.85094 7.5604 8.7534 7.54042 8.60482C7.5138 8.40682 7.50006 8.20479 7.50006 8C7.50006 5.51472 9.51478 3.5 12.0001 3.5C14.4853 3.5 16.5001 5.51472 16.5001 8Z" fill="#171510" fill-opacity="0.46"/>
</svg>
