<svg width="20" height="20" viewBox="0 0 20 20" fill="none" xmlns="http://www.w3.org/2000/svg">
<path d="M0 4C0 1.79086 1.79086 0 4 0H16C18.2091 0 20 1.79086 20 4V16C20 18.2091 18.2091 20 16 20H4C1.79086 20 0 18.2091 0 16V4Z" fill="#272A2B" fill-opacity="0.05"/>
<path d="M4 0.5H16C17.933 0.5 19.5 2.067 19.5 4V16C19.5 17.933 17.933 19.5 16 19.5H4C2.067 19.5 0.5 17.933 0.5 16V4C0.5 2.067 2.067 0.5 4 0.5Z" stroke="#24221F" stroke-opacity="0.1"/>
<path d="M14.8338 6.81209C14.8338 6.23826 14.8257 6.08362 14.7791 5.96118C14.7309 5.83482 14.6527 5.72181 14.5512 5.6324C14.4529 5.54588 14.3109 5.48417 13.7739 5.28279L10.1996 3.9423C10.1267 3.91494 10.0858 3.89983 10.0545 3.88957C10.0356 3.88339 10.0271 3.88163 10.0245 3.8811C10.0087 3.87882 9.99214 3.87882 9.97634 3.8811C9.97379 3.88163 9.96522 3.88339 9.94639 3.88957C9.91508 3.89983 9.87418 3.91494 9.8012 3.9423L6.22699 5.28279C5.68999 5.48417 5.54793 5.54588 5.44964 5.6324C5.34819 5.72181 5.26992 5.83482 5.22178 5.96118C5.17518 6.08362 5.16709 6.23826 5.16709 6.81209V10.0002C5.16709 11.4502 5.96025 12.7451 6.97503 13.8023C7.98419 14.8536 9.1566 15.6111 9.78688 15.9788C9.86629 16.0251 9.90396 16.0465 9.93337 16.0608C9.95326 16.0705 9.95944 16.0719 9.96527 16.0732C9.9624 16.0726 9.96469 16.0731 9.97243 16.0738C9.97998 16.0745 9.98975 16.0751 10.0004 16.0751C10.0111 16.0751 10.0209 16.0745 10.0284 16.0738C10.0362 16.0731 10.0384 16.0726 10.0356 16.0732C10.0414 16.0719 10.0476 16.0705 10.0675 16.0608C10.0969 16.0465 10.1346 16.0251 10.214 15.9788C10.8442 15.6111 12.0167 14.8536 13.0258 13.8023C14.0406 12.7451 14.8338 11.4502 14.8338 10.0002V6.81209ZM11.9802 7.64673C12.1755 7.45162 12.492 7.45162 12.6873 7.64673C12.8825 7.84195 12.8824 8.15849 12.6873 8.35376L9.68727 11.3538C9.49201 11.549 9.1755 11.549 8.98024 11.3538L7.64691 10.0204C7.45177 9.82515 7.45169 9.50862 7.64691 9.31339C7.84214 9.11829 8.15871 9.11829 8.35394 9.31339L9.33376 10.2932L11.9802 7.64673ZM15.8338 10.0002C15.8338 11.8226 14.8417 13.3541 13.7472 14.4944C12.6472 15.6403 11.3863 16.4521 10.7179 16.842C10.5861 16.9189 10.4418 17.0089 10.2452 17.051C10.0953 17.0832 9.90557 17.0832 9.75563 17.051C9.55908 17.0089 9.41477 16.9189 9.28298 16.842C8.61453 16.4521 7.35367 15.6403 6.25368 14.4944C5.15913 13.3541 4.16709 11.8226 4.16709 10.0002V6.81209C4.16709 6.32007 4.15914 5.9414 4.28688 5.60571C4.39276 5.32749 4.56486 5.07924 4.78818 4.8824C5.05767 4.64491 5.41532 4.51938 5.87607 4.3466L9.45029 3.0061C9.56879 2.96166 9.69661 2.91068 9.83376 2.89087C9.94427 2.87492 10.0566 2.87492 10.1671 2.89087C10.3042 2.91068 10.4321 2.96166 10.5506 3.0061L14.1248 4.3466C14.5855 4.51938 14.9432 4.64491 15.2127 4.8824C15.436 5.07924 15.6081 5.32749 15.714 5.60571C15.8417 5.9414 15.8338 6.32007 15.8338 6.81209V10.0002Z" fill="#171510" fill-opacity="0.46"/>
</svg>
