<svg width="24" height="24" viewBox="0 0 24 24" fill="none" xmlns="http://www.w3.org/2000/svg">
<path d="M22 6.6C22 8.58822 17.5228 10.2 12 10.2C6.47715 10.2 2 8.58822 2 6.6M22 6.6C22 4.61177 17.5228 3 12 3C6.47715 3 2 4.61177 2 6.6M22 6.6V10.2M2 6.6V10.2M22 10.2C22 12.1882 17.5228 13.8 12 13.8C6.47715 13.8 2 12.1882 2 10.2M22 10.2V13.8M2 10.2V13.8M22 13.8C22 15.7882 17.5228 17.4 12 17.4C6.47715 17.4 2 15.7882 2 13.8M22 13.8V17.4C22 19.3882 17.5228 21 12 21C6.47715 21 2 19.3882 2 17.4V13.8" stroke="#3056FF" stroke-width="1.5" stroke-linecap="round" stroke-linejoin="round"/>
</svg>
