<svg width="12" height="17" viewBox="0 0 12 17" fill="none" xmlns="http://www.w3.org/2000/svg">
<path d="M0.5 3.64845V12.9803C0.5 14.3193 0.5 14.9887 0.673263 15.3984C0.994402 16.1578 1.6982 16.5943 2.42149 16.4827C2.81173 16.4225 3.29236 16.0512 4.25364 15.3084L4.25595 15.3066C4.63696 15.0122 4.8275 14.865 5.02681 14.7833C5.39287 14.6334 5.7923 14.6334 6.15836 14.7833C6.35807 14.8651 6.54935 15.0129 6.93191 15.3085C7.89319 16.0513 8.37437 16.4224 8.7646 16.4826C9.4879 16.5941 10.1917 16.1578 10.5128 15.3984C10.686 14.9887 10.686 14.3191 10.686 12.9803V3.64522C10.686 2.54538 10.686 1.99464 10.5012 1.57414C10.3384 1.2039 10.078 0.903109 9.7586 0.714462C9.39545 0.5 8.92072 0.5 7.96993 0.5H3.21644C2.26566 0.5 1.78991 0.5 1.42676 0.714462C1.10732 0.903109 0.847797 1.2039 0.685035 1.57414C0.5 1.99505 0.5 2.54646 0.5 3.64845Z" fill="#DDF444" stroke="#DDF444" stroke-linecap="round" stroke-linejoin="round"/>
</svg>
