<svg width="15" height="14" viewBox="0 0 15 14" fill="none" xmlns="http://www.w3.org/2000/svg">
<path d="M0.363256 5.44959C0.144979 5.25251 0.263548 4.89624 0.558787 4.86206L4.74218 4.37761C4.86251 4.36369 4.96702 4.28991 5.01778 4.18249L6.78227 0.447709C6.9068 0.184131 7.2906 0.18408 7.41512 0.447658L9.17962 4.18241C9.23037 4.28983 9.33421 4.36381 9.45454 4.37773L13.6382 4.86206C13.9334 4.89624 14.0516 5.25262 13.8334 5.44969L10.7408 8.24237C10.6519 8.32269 10.6122 8.44225 10.6359 8.55828L11.4566 12.5923C11.5146 12.877 11.2042 13.0976 10.9448 12.9558L7.26884 10.9464C7.16311 10.8886 7.03465 10.8889 6.92892 10.9467L3.25259 12.9553C2.99316 13.0971 2.68225 12.877 2.74019 12.5923L3.56108 8.55853C3.58469 8.4425 3.54518 8.32267 3.45622 8.24235L0.363256 5.44959Z" stroke="#FFCC00" stroke-width="0.5" stroke-linecap="round" stroke-linejoin="round"/>
</svg>
