<svg width="14" height="13" viewBox="0 0 14 13" fill="none" xmlns="http://www.w3.org/2000/svg">
<path d="M0.11228 5.19959C-0.105998 5.00251 0.0125711 4.64624 0.30781 4.61206L4.4912 4.12761C4.61153 4.11369 4.71605 4.03991 4.7668 3.93249L6.5313 0.197709C6.65582 -0.0658692 7.03962 -0.0659198 7.16415 0.197658L8.92865 3.93241C8.9794 4.03983 9.08323 4.11381 9.20356 4.12773L13.3872 4.61206C13.6824 4.64624 13.8007 5.00262 13.5824 5.19969L10.4898 7.99237C10.4009 8.07269 10.3613 8.19225 10.3849 8.30828L11.2056 12.3423C11.2636 12.627 10.9532 12.8476 10.6938 12.7058L7.01786 10.6964C6.91213 10.6386 6.78368 10.6389 6.67794 10.6967L3.00162 12.7053C2.74219 12.8471 2.43127 12.627 2.48921 12.3423L3.3101 8.30853C3.33371 8.1925 3.29421 8.07267 3.20525 7.99235L0.11228 5.19959Z" fill="#FFCC00"/>
</svg>
