<svg width="24" height="24" viewBox="0 0 24 24" fill="none" xmlns="http://www.w3.org/2000/svg">
<path d="M2 20.9999C1.99994 21.5522 2.4476 21.9999 2.99989 22C3.55217 22.0001 3.99994 21.5524 4 21.0001L3 21L2 20.9999ZM3.00038 17.6246L4.00038 17.6247L3.00038 17.6246ZM12.5625 15.25C13.1148 15.25 13.5625 14.8023 13.5625 14.25C13.5625 13.6977 13.1148 13.25 12.5625 13.25V14.25V15.25ZM21 16.375C21.5523 16.375 22 15.9273 22 15.375C22 14.8227 21.5523 14.375 21 14.375V15.375V16.375ZM15.9375 14.375C15.3852 14.375 14.9375 14.8227 14.9375 15.375C14.9375 15.9273 15.3852 16.375 15.9375 16.375V15.375V14.375ZM17.4688 17.9061C17.4688 18.4584 17.9165 18.9061 18.4688 18.9061C19.021 18.9061 19.4688 18.4584 19.4688 17.9061H18.4688H17.4688ZM19.4688 12.8436C19.4688 12.2913 19.021 11.8436 18.4688 11.8436C17.9165 11.8436 17.4688 12.2913 17.4688 12.8436H18.4688H19.4688ZM14.25 6.375H13.25C13.25 7.68668 12.1867 8.75 10.875 8.75V9.75V10.75C13.2912 10.75 15.25 8.79125 15.25 6.375H14.25ZM10.875 9.75V8.75C9.56332 8.75 8.5 7.68668 8.5 6.375H7.5H6.5C6.5 8.79125 8.45875 10.75 10.875 10.75V9.75ZM7.5 6.375H8.5C8.5 5.06332 9.56332 4 10.875 4V3V2C8.45875 2 6.5 3.95875 6.5 6.375H7.5ZM10.875 3V4C12.1867 4 13.25 5.06332 13.25 6.375H14.25H15.25C15.25 3.95875 13.2912 2 10.875 2V3ZM3 21L4 21.0001L4.00038 17.6247L3.00038 17.6246L2.00038 17.6245L2 20.9999L3 21ZM6.37538 14.25V13.25C3.95933 13.25 2.00065 15.2085 2.00038 17.6245L3.00038 17.6246L4.00038 17.6247C4.00053 16.3132 5.06381 15.25 6.37538 15.25V14.25ZM6.37538 14.25V15.25H12.5625V14.25V13.25H6.37538V14.25ZM21 15.375V14.375H18.4688V15.375V16.375H21V15.375ZM18.4688 15.375V14.375H15.9375V15.375V16.375H18.4688V15.375ZM18.4688 17.9061H19.4688V15.375H18.4688H17.4688V17.9061H18.4688ZM18.4688 15.375H19.4688V12.8436H18.4688H17.4688V15.375H18.4688Z" fill="#3056FF"/>
</svg>
