<svg width="27" height="27" viewBox="0 0 27 27" fill="none" xmlns="http://www.w3.org/2000/svg">
<path d="M14.2637 17.0068L19.5138 11.7568M24.8842 8.55282L20.4527 22.9553C20.0556 24.246 19.8569 24.8917 19.5143 25.1057C19.2172 25.2913 18.8494 25.3224 18.5258 25.1881C18.1527 25.0333 17.8498 24.4287 17.2457 23.2204L14.4388 17.6067C14.343 17.415 14.295 17.3195 14.231 17.2364C14.1741 17.1627 14.1085 17.0963 14.0348 17.0394C13.9536 16.9769 13.8598 16.9299 13.6766 16.8384L8.04992 14.025C6.84167 13.4209 6.2375 13.1186 6.08268 12.7454C5.94841 12.4219 5.97903 12.0537 6.16467 11.7566C6.37872 11.414 7.02434 11.2149 8.31547 10.8177L22.7179 6.38615C23.733 6.07383 24.2407 5.9178 24.5836 6.04366C24.8822 6.1533 25.1176 6.3885 25.2272 6.68714C25.353 7.02982 25.1969 7.53729 24.8849 8.55132L24.8842 8.55282Z" stroke="#CBCBCB" stroke-width="2" stroke-linecap="round" stroke-linejoin="round"/>
</svg>
