<svg width="28" height="28" viewBox="0 0 28 28" fill="none" xmlns="http://www.w3.org/2000/svg">
<path d="M14.2003 7.2V7.23877M7.23877 14.2003H7.2M19.1501 9.25047L19.1227 9.27788M9.27804 19.1226L9.25062 19.15M9.27804 9.27744L9.25063 9.25003M14.2 25.4C8.01441 25.4 3 20.3856 3 14.2C3 8.01441 8.01441 3 14.2 3C20.3856 3 25.4 8.01441 25.4 14.2C25.4 16.0831 23.6601 17.336 21.777 17.336H21.046C20.6685 17.336 20.2962 17.4239 19.9586 17.5927C18.7576 18.1932 18.2708 19.6536 18.8713 20.8546C19.0401 21.1922 19.128 21.5645 19.128 21.942V22.1627C19.128 23.4467 18.4075 24.6626 17.1692 25.0022C16.2235 25.2615 15.2279 25.4 14.2 25.4Z" stroke="#FF46D7" stroke-width="2" stroke-linecap="round" stroke-linejoin="round"/>
</svg>
