<svg width="28" height="28" viewBox="0 0 28 28" fill="none" xmlns="http://www.w3.org/2000/svg">
<path d="M25.3286 18.1769L20.0553 12.9152C20.1656 12.3778 20.2204 11.8305 20.2186 11.2819C20.2182 9.77762 19.8386 8.29775 19.1149 6.97905C18.3912 5.66036 17.3467 4.54538 16.078 3.73719C14.8093 2.929 13.3574 2.45367 11.8563 2.35515C10.3553 2.25663 8.85371 2.53809 7.49027 3.17352C7.31753 3.25243 7.16667 3.37232 7.05078 3.52277C6.93489 3.67323 6.85748 3.8497 6.82527 4.03686C6.79319 4.22164 6.80613 4.41144 6.863 4.59016C6.91986 4.76888 7.01898 4.93125 7.15194 5.06352L12.2269 10.1269L10.1269 12.2269L5.0636 7.15186C4.93022 7.02096 4.76733 6.92402 4.58867 6.8692C4.41 6.81439 4.22078 6.80329 4.03694 6.83686C3.85095 6.86788 3.67525 6.94353 3.5249 7.05731C3.37454 7.1711 3.254 7.31963 3.1736 7.49019C2.53605 8.85811 2.25483 10.3651 2.35611 11.8709C2.45739 13.3767 2.93787 14.8324 3.75287 16.1026C4.56786 17.3728 5.69089 18.4163 7.01747 19.1359C8.34405 19.8556 9.8311 20.228 11.3403 20.2185C11.8889 20.2203 12.4362 20.1656 12.9736 20.0552L18.2353 25.3285C18.3437 25.4379 18.4728 25.5247 18.6149 25.5839C18.7571 25.6431 18.9096 25.6736 19.0636 25.6736C19.2176 25.6736 19.3701 25.6431 19.5123 25.5839C19.6544 25.5247 19.7835 25.4379 19.8919 25.3285C20.0013 25.2201 20.0881 25.091 20.1473 24.9489C20.2065 24.8067 20.237 24.6542 20.237 24.5002C20.237 24.3462 20.2065 24.1937 20.1473 24.0515C20.0881 23.9093 20.0013 23.7803 19.8919 23.6719L14.1753 17.9552C14.0324 17.8133 13.8553 17.7108 13.661 17.6576C13.4668 17.6045 13.2621 17.6025 13.0669 17.6519C12.5036 17.8027 11.9234 17.8811 11.3403 17.8852C10.4677 17.8929 9.60215 17.7279 8.7936 17.3996C7.98505 17.0713 7.24944 16.5863 6.62914 15.9726C6.00885 15.3588 5.51612 14.6283 5.17936 13.8233C4.84259 13.0182 4.66844 12.1545 4.66694 11.2819C4.66543 10.891 4.69665 10.5008 4.76027 10.1152L9.3336 14.7002C9.44206 14.8095 9.5711 14.8963 9.71326 14.9556C9.85543 15.0148 10.0079 15.0453 10.1619 15.0453C10.316 15.0453 10.4684 15.0148 10.6106 14.9556C10.7528 14.8963 10.8818 14.8095 10.9903 14.7002L14.7003 10.9552C14.9106 10.7376 15.0281 10.4469 15.0281 10.1444C15.0281 9.84179 14.9106 9.55107 14.7003 9.33352L10.1619 4.76019C10.5476 4.6972 10.9378 4.66599 11.3286 4.66686C13.081 4.66995 14.7605 5.36825 15.9986 6.60846C17.2366 7.84868 17.9319 9.52947 17.9319 11.2819C17.9279 11.865 17.8495 12.4452 17.6986 13.0085C17.6492 13.2037 17.6512 13.4084 17.7044 13.6026C17.7575 13.7968 17.86 13.974 18.0019 14.1169L23.7186 19.8335C23.9383 20.0532 24.2363 20.1766 24.5469 20.1766C24.8576 20.1766 25.1556 20.0532 25.3753 19.8335C25.595 19.6138 25.7184 19.3159 25.7184 19.0052C25.7184 18.6945 25.595 18.3965 25.3753 18.1769H25.3286Z" fill="#00CFD3"/>
</svg>
