<svg width="31" height="31" viewBox="0 0 31 31" fill="none" xmlns="http://www.w3.org/2000/svg">
<mask id="mask0_1876_4779" style="mask-type:alpha" maskUnits="userSpaceOnUse" x="2" y="4" width="25" height="23">
<path d="M2 12C2 8.22876 2 6.34315 3.17157 5.17157C4.34315 4 6.22876 4 10 4H19C22.7712 4 24.6569 4 25.8284 5.17157C27 6.34315 27 8.22876 27 12V19C27 22.7712 27 24.6569 25.8284 25.8284C24.6569 27 22.7712 27 19 27H10C6.22876 27 4.34315 27 3.17157 25.8284C2 24.6569 2 22.7712 2 19V12Z" fill="black"/>
</mask>
<g mask="url(#mask0_1876_4779)">
<path fill-rule="evenodd" clip-rule="evenodd" d="M19.1377 -0.848598C22.9029 -1.05777 24.7858 -1.16233 26.0205 -0.0575823C27.255 1.04723 27.3592 2.93015 27.5684 6.69535L28.3516 20.7832C28.3868 21.421 27.879 21.9571 27.2402 21.9571C27.1665 21.9571 27.0961 21.9281 27.0439 21.876L24.5039 19.3369C23.4434 18.2765 22.9132 17.7453 22.2715 17.6436C22.0642 17.6108 21.8527 17.6108 21.6455 17.6436C21.0036 17.7452 20.4737 18.2763 19.4131 19.3369C18.8615 19.8885 18.5852 20.1644 18.2539 20.211C18.1472 20.226 18.0386 20.2228 17.9326 20.2032C17.6037 20.1422 17.3396 19.8553 16.8125 19.2803L13.4229 15.5821C12.2909 14.3472 11.7245 13.7295 11.0283 13.6231C10.3322 13.5168 9.53959 13.9759 7.95508 14.8946C5.69811 16.2031 2.86195 17.4356 2 15.9991C2.00005 14.647 2.51343 10.3284 3.00293 6.51859C3.40137 3.41745 3.60072 1.86669 4.65918 0.881871C5.71789 -0.102947 7.29324 -0.19117 10.4434 -0.366176L19.1377 -0.848598ZM21.3125 7.74906C20.2425 7.74906 19.3751 8.61657 19.375 9.68656C19.375 10.7566 20.2424 11.6241 21.3125 11.6241C22.3826 11.6241 23.25 10.7566 23.25 9.68656C23.2499 8.61657 22.3825 7.74906 21.3125 7.74906Z" fill="#3056FF"/>
</g>
<path d="M15 27H23C25.2091 27 27 25.2091 27 23V8C27 5.79086 25.2091 4 23 4H7C4.79086 4 3 5.79086 3 8V15.5" stroke="#3056FF" stroke-width="2" stroke-linecap="round"/>
<path d="M10.332 20.666V19.666H11.332V20.666H10.332ZM4.5808 27.8315C4.19028 28.222 3.55711 28.222 3.16659 27.8315C2.77607 27.4409 2.77607 26.8078 3.16659 26.4172L3.8737 27.1243L4.5808 27.8315ZM10.332 27.1243H9.33203V20.666H10.332H11.332V27.1243H10.332ZM10.332 20.666V21.666H3.8737V20.666V19.666H10.332V20.666ZM10.332 20.666L11.0391 21.3731L4.5808 27.8315L3.8737 27.1243L3.16659 26.4172L9.62492 19.9589L10.332 20.666Z" fill="#3056FF"/>
</svg>
