<svg width="28" height="28" viewBox="0 0 28 28" fill="none" xmlns="http://www.w3.org/2000/svg">
<path d="M11 13.1667V23.6667M11 13.1667H5.86621C5.21282 13.1667 4.88645 13.1667 4.63688 13.2938C4.41736 13.4057 4.23901 13.584 4.12716 13.8035C4 14.0531 4 14.3801 4 15.0334V23.6667H11M11 13.1667V6.86678C11 6.21339 11 5.88645 11.1272 5.63688C11.239 5.41736 11.4174 5.23901 11.6369 5.12716C11.8864 5 12.2128 5 12.8662 5H16.1329C16.7863 5 17.1137 5 17.3632 5.12716C17.5827 5.23901 17.7605 5.41736 17.8724 5.63688C17.9996 5.88645 18 6.21339 18 6.86678V9.66667M11 23.6667H18M18 23.6667L25 23.6668V11.5334C25 10.8801 24.9996 10.5531 24.8724 10.3035C24.7605 10.084 24.5834 9.90568 24.3639 9.79383C24.1143 9.66667 23.7867 9.66667 23.1333 9.66667H18M18 23.6667V9.66667" stroke="#FFBA24" stroke-width="2" stroke-linecap="round" stroke-linejoin="round"/>
</svg>
