<svg width="28" height="28" viewBox="0 0 28 28" fill="none" xmlns="http://www.w3.org/2000/svg">
<path d="M14.3333 9.18373L5 18.5171V23.1837H23.6667M14.3333 9.18373L17.6801 5.83697L17.6821 5.83498C18.1428 5.37429 18.3735 5.14353 18.6395 5.0571C18.8739 4.98097 19.1263 4.98097 19.3606 5.0571C19.6264 5.14347 19.8569 5.37396 20.3169 5.83401L22.3467 7.86377C22.8087 8.32579 23.0398 8.5569 23.1264 8.82329C23.2025 9.0576 23.2025 9.31001 23.1264 9.54432C23.0399 9.81052 22.8091 10.0413 22.3478 10.5026L22.3467 10.5036L19 13.8504L9.66667 23.1837L5 23.1837M14.3333 9.18373L19 13.8504" stroke="#0088FF" stroke-width="2" stroke-linecap="round" stroke-linejoin="round"/>
</svg>
