<svg width="18" height="18" viewBox="0 0 18 18" fill="none" xmlns="http://www.w3.org/2000/svg">
<path d="M15.5 5.4C15.5 6.72548 12.5899 7.8 9 7.8C5.41015 7.8 2.5 6.72548 2.5 5.4M15.5 5.4C15.5 4.07452 12.5899 3 9 3C5.41015 3 2.5 4.07452 2.5 5.4M15.5 5.4V7.8M2.5 5.4V7.8M15.5 7.8C15.5 9.12548 12.5899 10.2 9 10.2C5.41015 10.2 2.5 9.12548 2.5 7.8M15.5 7.8V10.2M2.5 7.8V10.2M15.5 10.2C15.5 11.5255 12.5899 12.6 9 12.6C5.41015 12.6 2.5 11.5255 2.5 10.2M15.5 10.2V12.6C15.5 13.9255 12.5899 15 9 15C5.41015 15 2.5 13.9255 2.5 12.6V10.2" stroke="black" stroke-linecap="round" stroke-linejoin="round"/>
</svg>
