<svg width="13" height="13" viewBox="0 0 13 13" fill="none" xmlns="http://www.w3.org/2000/svg">
<path d="M4.12495 4.125L6.37487 6.37495M6.37487 6.37495L8.62479 8.6249M6.37487 6.37495L4.12495 8.6249M6.37487 6.37495L8.62479 4.125M0.375 9.97515V2.77515C0.375 1.93507 0.375 1.51472 0.538488 1.19385C0.682296 0.911605 0.911597 0.6823 1.19384 0.53849C1.5147 0.375 1.93505 0.375 2.77511 0.375H9.97502C10.8151 0.375 11.2349 0.375 11.5558 0.53849C11.838 0.6823 12.0677 0.911605 12.2115 1.19385C12.375 1.51472 12.375 1.93475 12.375 2.77483V9.97485C12.375 10.8149 12.375 11.235 12.2115 11.5558C12.0677 11.8381 11.838 12.0679 11.5558 12.2117C11.2352 12.375 10.816 12.375 9.97755 12.375H2.77265C1.93422 12.375 1.51439 12.375 1.19384 12.2117C0.911597 12.0679 0.682296 11.8382 0.538488 11.5559C0.375 11.235 0.375 10.8152 0.375 9.97515Z" stroke="#969696" stroke-opacity="0.75" stroke-width="0.75" stroke-linecap="round" stroke-linejoin="round"/>
</svg>
