<svg width="115" height="40" viewBox="0 0 115 40" fill="none" xmlns="http://www.w3.org/2000/svg">
<path fill-rule="evenodd" clip-rule="evenodd" d="M51.4582 0.064196C53.9634 -0.19765 56.1401 0.410641 56.4104 0.649157L56.4035 0.65111C56.8354 1.03968 56.4921 1.8533 56.177 2.48705C53.4049 7.81274 44.4116 22.2573 41.9846 34.3982C41.4558 36.78 41.7007 37.4729 40.9201 38.1267C39.9562 38.9372 35.6904 38.6854 34.5021 38.2185C33.1778 37.6998 33.0002 36.947 33.1887 36.113C33.1937 36.0969 33.5618 34.8756 34.0217 33.7068C34.1134 33.4716 34.2027 33.2327 34.2961 32.9958C34.4345 32.6439 34.4447 32.2585 34.3312 31.8982C33.654 29.7499 31.4489 26.6477 30.298 25.3201C29.9645 24.9348 29.6195 24.5491 29.2492 24.2038C29.1242 24.0855 28.9941 23.9705 28.8674 23.8572C28.0201 24.6761 27.1795 25.5037 26.3488 26.3376C23.0613 29.6635 19.7287 33.3014 16.0559 36.282C13.8825 37.9833 11.3953 39.461 8.62324 39.8796C5.44415 40.3599 1.27066 39.4675 0.168162 36.115C-0.147012 35.1643 -0.0367205 34.0117 0.64863 33.2195C1.77617 31.9201 4.0518 31.5396 5.29609 32.8406C5.66804 33.2275 5.98344 33.7028 6.39375 34.0564C7.51116 34.9085 9.33863 34.2371 10.091 33.9402C11.7122 33.3097 13.2383 32.2751 14.6594 31.241C17.8035 28.9575 20.8316 26.2954 23.7922 23.6951C24.4859 23.0897 25.1959 22.469 25.9113 21.8386C25.933 21.822 25.9303 21.7869 25.9055 21.7751C25.0949 21.3282 24.2507 20.9514 23.3801 20.6462C21.1984 19.8806 18.8196 19.5886 16.5412 19.3484C15.7439 19.2633 14.4829 18.8532 14.7814 17.8074C15.0751 16.7833 16.2226 16.0162 17.1916 15.741C19.1298 15.1955 21.3753 15.5675 23.0949 16.1697C25.258 16.9636 27.1245 18.0491 28.7473 19.3367C30.1314 18.1076 31.5025 16.8804 32.8 15.698C33.9558 14.6439 35.1137 13.5946 36.2795 12.5505C38.3694 10.6791 40.4731 8.82425 42.5881 6.98119C43.6422 6.06215 44.7011 5.1458 45.7619 4.23509C46.766 3.37112 47.7189 2.44029 48.7297 1.57299C49.1466 1.21608 49.5871 0.738044 50.0656 0.464587C50.4676 0.234419 51.0012 0.114233 51.4582 0.064196ZM79.7434 8.39525C80.8891 8.15342 82.0683 8.18694 83.2258 8.32201C83.5943 8.3637 83.9331 8.52677 83.9699 8.94017C83.9966 9.20524 83.8101 9.45395 83.7033 9.68236C83.2229 10.7098 82.7455 11.7347 82.2668 12.7605C81.5179 14.3666 80.7656 15.9727 80.0168 17.5788C79.1645 19.4101 78.3092 21.2399 77.4553 23.0661C76.663 24.7625 75.8735 26.4594 75.0812 28.154C74.6994 28.9695 74.3597 29.8037 74.0812 30.6609C73.6876 31.8701 73.1469 33.3828 73.6789 34.1951C73.819 34.4068 74.0444 34.5389 74.2912 34.5906C75.6272 34.8689 77.2282 33.5173 78.0187 32.4665C78.3688 32.0364 78.5523 31.613 78.6857 31.1462C78.7091 31.0562 78.7258 30.9642 78.7375 30.8708C78.7575 30.7057 78.7846 30.5337 78.8146 30.3552C78.9314 29.7932 79.098 29.1527 79.2932 28.5857C80.8844 23.9572 85.2308 19.2932 90.4113 18.8611C96.7212 18.334 98.2793 23.5936 94.343 27.7468C91.4591 30.7907 87.1608 31.6695 83.091 31.9197C83.0326 33.2941 83.8652 34.4135 85.2346 34.737C88.5304 35.5092 92.8307 33.5427 95.2658 31.3894C95.6743 31.0276 96.0929 30.624 96.3664 30.1472C96.6399 29.6653 96.7304 29.0997 96.9055 28.5828C98.4984 23.9559 102.843 19.2921 108.026 18.8601C114.332 18.3332 115.889 23.5917 111.956 27.7449C109.071 30.7887 104.773 31.6675 100.703 31.9177C100.643 33.292 101.477 34.4115 102.848 34.7351C106.144 35.5074 110.442 33.5408 112.879 31.3874L112.882 31.3913C113.312 30.966 114.717 31.3179 114.529 32.2703C114.457 32.5539 114.183 33.1596 113.411 34.0369C112.691 34.8523 111.847 35.5524 110.928 36.1394C108.953 37.4037 106.544 38.3899 104.403 38.5984C103.77 38.6634 102.561 38.6667 101.936 38.5984C99.664 38.3565 97.2919 36.8304 96.5363 34.6521C96.5363 34.6521 96.4094 34.2585 96.3293 33.5681C95.7123 34.2201 94.9286 34.9733 94.5666 35.2537C92.4283 36.9233 89.4057 38.3432 86.7853 38.5984C86.1548 38.6634 84.9443 38.6667 84.3205 38.5984C82.0488 38.3565 79.6767 36.8304 78.9211 34.6521C78.9211 34.6521 78.886 34.5383 78.841 34.3298C76.0872 37.7791 69.3688 41.9025 69.1086 34.6052C66.7484 37.0087 63.6861 39.0603 60.1301 38.5749C58.9275 38.4081 57.6881 37.7191 56.9191 36.7234C56.7273 36.4547 56.2684 35.7828 55.9982 34.6706C54.0749 36.6405 49.368 39.7909 46.9162 38.2214C44.9049 36.6302 45.4459 34.3766 46.59 31.6863C46.9188 30.9153 48.3362 27.8784 49.592 25.1999C50.3559 23.5737 51.06 22.0768 51.427 21.2995L51.4279 21.2986C51.4546 21.2519 51.4805 21.2119 51.5021 21.1736C51.6656 20.905 51.9291 20.7129 52.2326 20.6345C52.6895 20.5395 53.1551 20.4931 53.6203 20.4831C53.7516 20.4815 54.8439 20.5224 55.2609 20.5691C55.5812 20.6074 55.8753 20.7479 55.9104 21.1081C55.9285 21.3378 55.349 22.4447 55.3381 22.4656C55.0496 23.0476 54.6975 23.7467 54.3156 24.5105L53.9699 25.1999C52.4639 28.2303 50.6817 31.956 50.4963 33.4324C50.2127 35.6674 52.8975 34.5117 53.9768 33.6794C54.7906 33.0507 55.3831 32.3323 55.7951 31.6902C55.8468 31.6068 55.8804 31.5125 55.8937 31.4158C56.0205 30.5385 56.2721 29.5495 56.7023 28.4421C58.2085 24.6509 61.5598 20.5757 65.9582 19.198C67.9263 18.6927 70.1681 18.5914 71.8576 19.5271C72.538 19.919 73.1789 20.606 73.3674 21.238C73.3976 21.1654 77.4917 11.3266 78.9025 9.01341C79.091 8.70667 79.3916 8.48366 79.7434 8.39525ZM71.1184 26.823C71.9323 24.2778 71.6656 22.1904 68.4602 22.4704C64.8157 22.789 61.6846 26.5623 60.7922 29.9099C60.0717 32.6136 60.8657 35.5627 64.218 34.4138C67.0267 33.4514 70.2275 29.6118 71.1184 26.823ZM91.0012 22.0554C88.6107 21.944 85.9626 24.4948 84.5793 26.9607L84.5656 26.988C84.5651 26.9886 84.5637 26.9898 84.5637 26.991L84.5002 27.1062L84.4357 27.2283C84.4157 27.2682 84.3952 27.3064 84.3752 27.3464C84.3268 27.4464 84.2766 27.5436 84.2316 27.6453C83.9799 28.1839 83.7984 28.7061 83.7033 29.1814L83.7014 29.1843C83.7014 29.1843 83.7052 29.1836 83.7072 29.1824C83.7076 29.1814 83.7079 29.1804 83.7082 29.1794C83.9139 29.1528 84.1247 29.1197 84.3391 29.0818C84.7682 29.006 85.2124 28.9079 85.6623 28.7878C86.7863 28.4879 87.9457 28.0511 88.9953 27.4841C87.5243 28.2896 85.8379 28.8374 84.3342 29.1081C84.1192 29.1469 83.9076 29.1804 83.7014 29.2078V29.2107C85.3509 28.9922 87.3141 28.4087 88.9953 27.488C89.067 27.4497 89.1391 27.4099 89.2092 27.3699C90.2766 26.7694 91.2135 26.0301 91.8674 25.1628C92.2118 24.7075 92.4383 24.1603 92.4826 23.654L92.4904 23.4402C92.4907 23.4196 92.4888 23.399 92.4885 23.3786C92.4559 22.6754 92.023 22.1042 91.0012 22.0554ZM108.615 22.0574C105.473 21.9092 101.884 26.3703 101.317 29.1824C104.094 28.8204 107.763 27.4415 109.485 25.1599C110.385 23.9656 110.474 22.1438 108.615 22.0554V22.0574ZM47.1145 8.01634C46.3139 8.54004 44.9365 9.54577 44.0441 10.2546C41.5072 12.2912 38.8904 14.5421 36.4836 16.7204C34.7222 18.35 32.952 19.9813 31.2023 21.6326C33.2272 23.8375 34.7598 26.3878 35.9523 28.988C39.7102 20.3498 44.1544 13.0008 47.1867 8.08373H47.1848C47.2115 8.03869 47.1595 7.98799 47.1145 8.01634ZM55.426 14.4919C56.9054 14.0716 58.19 14.6433 58.2219 15.8474H58.2199C58.2533 17.1184 56.9473 18.4347 55.3244 18.7683C53.7433 19.0251 52.6522 18.3759 52.759 17.1951C52.8659 16.0143 54.0235 14.8906 55.426 14.4919Z" fill="#3056FF"/>
</svg>
